Geologica-SharpThinItalic.ufo
<glyph name="parenright" format="2">
  <advance width="686"/>
  <unicode hex="0029"/>
  <outline>
    <contour>
      <point x="85" y="-224" type="line"/>
      <point x="392" y="114"/>
      <point x="570" y="592"/>
      <point x="570" y="1052" type="curve" smooth="yes"/>
      <point x="571" y="1248"/>
      <point x="539" y="1438"/>
      <point x="471" y="1610" type="curve"/>
      <point x="383" y="1610" type="line"/>
      <point x="441" y="1446"/>
      <point x="472" y="1262"/>
      <point x="471" y="1068" type="curve" smooth="yes"/>
      <point x="472" y="618"/>
      <point x="300" y="98"/>
      <point x="-18" y="-224" type="curve"/>
    </contour>
  </outline>
</glyph>
<glyph name="period" format="2">
  <advance width="504"/>
  <unicode hex="002E"/>
  <outline>
    <contour>
      <point x="154" y="-30" type="curve" smooth="yes"/>
      <point x="220" y="-30"/>
      <point x="278" y="18"/>
      <point x="278" y="86" type="curve" smooth="yes"/>
      <point x="278" y="138"/>
      <point x="236" y="178"/>
      <point x="178" y="178" type="curve" smooth="yes"/>
      <point x="112" y="178"/>
      <point x="54" y="130"/>
      <point x="54" y="62" type="curve" smooth="yes"/>
      <point x="54" y="10"/>
      <point x="96" y="-30"/>
    </contour>
  </outline>
</glyph>
<glyph name="slash" format="2">
  <advance width="882"/>
  <unicode hex="002F"/>
  <outline>
    <contour>
      <point x="-22" y="-220" type="line"/>
      <point x="1121" y="1600" type="line"/>
      <point x="998" y="1600" type="line"/>
      <point x="-144" y="-220" type="line"/>
    </contour>
  </outline>
</glyph>
<glyph name="one" format="2">
  <advance width="812"/>
  <unicode hex="0031"/>
  <outline>
    <contour>
      <point x="358" y="0" type="line"/>
      <point x="470" y="0" type="line"/>
      <point x="774" y="1430" type="line"/>
      <point x="764" y="1430" type="line"/>
      <point x="214" y="1238" type="line"/>
      <point x="192" y="1134" type="line"/>
      <point x="630" y="1284" type="line"/>
    </contour>
  </outline>
</glyph>
<glyph name="two" format="2">
  <advance width="1168"/>
  <unicode hex="0032"/>
  <outline>
    <contour>
      <point x="38" y="0" type="line"/>
      <point x="924" y="0" type="line"/>
      <point x="970" y="108" type="line"/>
      <point x="216" y="108" type="line"/>
      <point x="580" y="380" type="line" smooth="yes"/>
      <point x="886" y="610"/>
      <point x="1110" y="810"/>
      <point x="1110" y="1074" type="curve" smooth="yes"/>
      <point x="1110" y="1294"/>
      <point x="940" y="1430"/>
      <point x="694" y="1430" type="curve" smooth="yes"/>
      <point x="576" y="1430"/>
      <point x="452" y="1402"/>
      <point x="358" y="1340" type="curve"/>
      <point x="332" y="1216" type="line"/>
      <point x="432" y="1284"/>
      <point x="548" y="1322"/>
      <point x="666" y="1322" type="curve" smooth="yes"/>
      <point x="866" y="1322"/>
      <point x="994" y="1222"/>
      <point x="994" y="1064" type="curve" smooth="yes"/>
      <point x="994" y="826"/>
      <point x="734" y="622"/>
      <point x="446" y="400" type="curve" smooth="yes"/>
      <point x="60" y="102" type="line"/>
    </contour>
  </outline>
</glyph>
<glyph name="six" format="2">
  <advance width="1268"/>
  <unicode hex="0036"/>
  <outline>
    <contour>
      <point x="632" y="-30" type="curve" smooth="yes"/>
      <point x="928" y="-30"/>
      <point x="1177" y="199"/>
      <point x="1177" y="488" type="curve" smooth="yes"/>
      <point x="1177" y="730"/>
      <point x="976" y="892"/>
      <point x="728" y="892" type="curve" smooth="yes"/>
      <point x="561" y="892"/>
      <point x="401" y="815"/>
      <point x="297" y="690" type="curve"/>
      <point x="403" y="1116"/>
      <point x="776" y="1369"/>
      <point x="1229" y="1309" type="curve"/>
      <point x="1252" y="1423" type="line"/>
      <point x="642" y="1487"/>
      <point x="157" y="1066"/>
      <point x="157" y="469" type="curve" smooth="yes"/>
      <point x="157" y="161"/>
      <point x="335" y="-30"/>
    </contour>
    <contour>
      <point x="642" y="84" type="curve" smooth="yes"/>
      <point x="416" y="84"/>
      <point x="274" y="218"/>
      <point x="274" y="404" type="curve" smooth="yes"/>
      <point x="274" y="618"/>
      <point x="464" y="778"/>
      <point x="688" y="778" type="curve" smooth="yes"/>
      <point x="900" y="778"/>
      <point x="1050" y="638"/>
      <point x="1050" y="458" type="curve" smooth="yes"/>
      <point x="1050" y="252"/>
      <point x="872" y="84"/>
    </contour>
  </outline>
</glyph>
<glyph name="seven" format="2">
  <advance width="1076"/>
  <unicode hex="0037"/>
  <outline>
    <contour>
      <point x="100" y="0" type="line"/>
      <point x="238" y="0" type="line"/>
      <point x="1144" y="1304" type="line"/>
      <point x="1164" y="1400" type="line"/>
      <point x="322" y="1400" type="line"/>
      <point x="276" y="1292" type="line"/>
      <point x="1004" y="1292" type="line"/>
    </contour>
  </outline>
</glyph>
<glyph name="nine" format="2">
  <advance width="1248"/>
  <unicode hex="0039"/>
  <outline>
    <contour>
      <point x="101" y="-23" type="line"/>
      <point x="705" y="-88"/>
      <point x="1186" y="338"/>
      <point x="1186" y="943" type="curve" smooth="yes"/>
      <point x="1186" y="1243"/>
      <point x="1008" y="1430"/>
      <point x="711" y="1430" type="curve" smooth="yes"/>
      <point x="421" y="1430"/>
      <point x="190" y="1211"/>
      <point x="190" y="936" type="curve" smooth="yes"/>
      <point x="190" y="694"/>
      <point x="391" y="532"/>
      <point x="627" y="532" type="curve" smooth="yes"/>
      <point x="799" y="532"/>
      <point x="947" y="609"/>
      <point x="1046" y="734" type="curve"/>
      <point x="941" y="291"/>
      <point x="572" y="29"/>
      <point x="124" y="91" type="curve"/>
    </contour>
    <contour>
      <point x="667" y="646" type="curve" smooth="yes"/>
      <point x="462" y="646"/>
      <point x="317" y="780"/>
      <point x="317" y="954" type="curve" smooth="yes"/>
      <point x="317" y="1153"/>
      <point x="490" y="1316"/>
      <point x="713" y="1316" type="curve" smooth="yes"/>
      <point x="932" y="1316"/>
      <point x="1069" y="1187"/>
      <point x="1069" y="1008" type="curve" smooth="yes"/>
      <point x="1069" y="800"/>
      <point x="885" y="646"/>
    </contour>
  </outline>
</glyph>
<glyph name="C" format="2">
  <advance width="1373"/>
  <unicode hex="0043"/>
  <anchor x="714" y="0" name="bottom"/>
  <anchor x="940" y="1400" name="top"/>
  <outline>
    <contour>
      <point x="802" y="-30" type="curve" smooth="yes"/>
      <point x="944" y="-30"/>
      <point x="1074" y="0"/>
      <point x="1196" y="70" type="curve"/>
      <point x="1226" y="202" type="line"/>
      <point x="1108" y="122"/>
      <point x="980" y="82"/>
      <point x="830" y="82" type="curve" smooth="yes"/>
      <point x="488" y="82"/>
      <point x="278" y="272"/>
      <point x="278" y="594" type="curve" smooth="yes"/>
      <point x="278" y="998"/>
      <point x="536" y="1320"/>
      <point x="932" y="1320" type="curve" smooth="yes"/>
      <point x="1108" y="1320"/>
      <point x="1250" y="1270"/>
      <point x="1342" y="1172" type="curve"/>
      <point x="1370" y="1296" type="line"/>
      <point x="1270" y="1382"/>
      <point x="1124" y="1430"/>
      <point x="940" y="1430" type="curve" smooth="yes"/>
      <point x="494" y="1430"/>
      <point x="154" y="1040"/>
      <point x="154" y="578" type="curve" smooth="yes"/>
      <point x="154" y="212"/>
      <point x="400" y="-30"/>
    </contour>
  </outline>
</glyph>
<glyph name="G" format="2">
  <advance width="1510"/>
  <unicode hex="0047"/>
  <anchor x="804" y="0" name="bottom"/>
  <anchor x="968" y="1400" name="top"/>
  <outline>
    <contour>
      <point x="854" y="-30" type="curve" smooth="yes"/>
      <point x="964" y="-30"/>
      <point x="1132" y="-4"/>
      <point x="1236" y="46" type="curve"/>
      <point x="1374" y="686" type="line"/>
      <point x="926" y="686" type="line"/>
      <point x="878" y="578" type="line"/>
      <point x="1238" y="578" type="line"/>
      <point x="1142" y="114" type="line"/>
      <point x="1082" y="94"/>
      <point x="994" y="78"/>
      <point x="892" y="78" type="curve" smooth="yes"/>
      <point x="512" y="78"/>
      <point x="278" y="280"/>
      <point x="278" y="608" type="curve" smooth="yes"/>
      <point x="278" y="1004"/>
      <point x="548" y="1318"/>
      <point x="956" y="1318" type="curve" smooth="yes"/>
      <point x="1110" y="1318"/>
      <point x="1268" y="1274"/>
      <point x="1386" y="1190" type="curve"/>
      <point x="1411" y="1305" type="line"/>
      <point x="1303" y="1387"/>
      <point x="1147" y="1430"/>
      <point x="984" y="1430" type="curve" smooth="yes"/>
      <point x="512" y="1430"/>
      <point x="158" y="1072"/>
      <point x="158" y="604" type="curve" smooth="yes"/>
      <point x="158" y="218"/>
      <point x="456" y="-30"/>
    </contour>
  </outline>
</glyph>
<glyph name="I" format="2">
  <advance width="518"/>
  <unicode hex="0049"/>
  <anchor x="158" y="0" name="bottom"/>
  <anchor x="216" y="0" name="ogonek"/>
  <anchor x="454" y="1400" name="top"/>
  <anchor x="316" y="1400" name="topleft"/>
  <outline>
    <contour>
      <point x="100" y="0" type="line"/>
      <point x="216" y="0" type="line"/>
      <point x="512" y="1400" type="line"/>
      <point x="396" y="1400" type="line"/>
    </contour>
  </outline>
</glyph>
<glyph name="K" format="2">
  <advance width="1316"/>
  <unicode hex="004B"/>
  <anchor x="592" y="0" name="bottom"/>
  <outline>
    <contour>
      <point x="100" y="0" type="line"/>
      <point x="216" y="0" type="line"/>
      <point x="298" y="394" type="line"/>
      <point x="600" y="684" type="line"/>
      <point x="980" y="0" type="line"/>
      <point x="1124" y="0" type="line"/>
      <point x="690" y="772" type="line"/>
      <point x="1330" y="1400" type="line"/>
      <point x="1186" y="1400" type="line"/>
      <point x="338" y="572" type="line"/>
      <point x="512" y="1400" type="line"/>
      <point x="396" y="1400" type="line"/>
    </contour>
  </outline>
</glyph>
<glyph name="L" format="2">
  <advance width="1056"/>
  <unicode hex="004C"/>
  <anchor x="488" y="0" name="bottom"/>
  <anchor x="522" y="1440" name="caron"/>
  <anchor x="454" y="1400" name="top"/>
  <outline>
    <contour>
      <point x="100" y="0" type="line"/>
      <point x="862" y="0" type="line"/>
      <point x="908" y="108" type="line"/>
      <point x="238" y="108" type="line"/>
      <point x="512" y="1400" type="line"/>
      <point x="396" y="1400" type="line"/>
    </contour>
  </outline>
</glyph>
<glyph name="b" format="2">
  <advance width="1261"/>
  <unicode hex="0062"/>
  <outline>
    <contour>
      <point x="638" y="-30" type="curve" smooth="yes"/>
      <point x="944" y="-30"/>
      <point x="1182" y="242"/>
      <point x="1182" y="548" type="curve" smooth="yes"/>
      <point x="1182" y="792"/>
      <point x="1014" y="990"/>
      <point x="736" y="990" type="curve" smooth="yes"/>
      <point x="548" y="990"/>
      <point x="422" y="900"/>
      <point x="324" y="782" type="curve"/>
      <point x="336" y="734" type="line"/>
      <point x="496" y="1480" type="line"/>
      <point x="372" y="1428" type="line"/>
      <point x="60" y="-40" type="line"/>
      <point x="252" y="152" type="line"/>
      <point x="268" y="226" type="line"/>
      <point x="206" y="230" type="line"/>
      <point x="270" y="82"/>
      <point x="414" y="-30"/>
    </contour>
    <contour>
      <point x="630" y="80" type="curve" smooth="yes"/>
      <point x="414" y="80"/>
      <point x="276" y="212"/>
      <point x="276" y="424" type="curve" smooth="yes"/>
      <point x="276" y="676"/>
      <point x="448" y="882"/>
      <point x="710" y="882" type="curve" smooth="yes"/>
      <point x="922" y="882"/>
      <point x="1060" y="750"/>
      <point x="1060" y="546" type="curve" smooth="yes"/>
      <point x="1060" y="292"/>
      <point x="888" y="80"/>
    </contour>
  </outline>
</glyph>
<glyph name="k" format="2">
  <advance width="1028"/>
  <unicode hex="006B"/>
  <anchor x="454" y="0" name="bottom"/>
  <outline>
    <contour>
      <point x="68" y="0" type="line"/>
      <point x="180" y="0" type="line"/>
      <point x="256" y="356" type="line"/>
      <point x="482" y="542" type="line"/>
      <point x="732" y="0" type="line"/>
      <point x="866" y="0" type="line"/>
      <point x="578" y="610" type="line"/>
      <point x="996" y="960" type="line"/>
      <point x="850" y="960" type="line"/>
      <point x="288" y="500" type="line"/>
      <point x="496" y="1480" type="line"/>
      <point x="354" y="1338" type="line"/>
    </contour>
  </outline>
</glyph>
<glyph name="z" format="2">
  <advance width="922"/>
  <unicode hex="007A"/>
  <anchor x="562" y="960" name="top"/>
  <outline>
    <contour>
      <point x="-2" y="0" type="line"/>
      <point x="708" y="0" type="line"/>
      <point x="754" y="104" type="line"/>
      <point x="162" y="104" type="line"/>
      <point x="896" y="862" type="line"/>
      <point x="916" y="960" type="line"/>
      <point x="208" y="960" type="line"/>
      <point x="186" y="856" type="line"/>
      <point x="752" y="856" type="line"/>
      <point x="18" y="98" type="line"/>
    </contour>
  </outline>
</glyph>
<glyph name="bar" format="2">
  <advance width="503"/>
  <unicode hex="007C"/>
  <outline>
    <contour>
      <point x="52" y="-220" type="line"/>
      <point x="152" y="-220" type="line"/>
      <point x="540" y="1600" type="line"/>
      <point x="440" y="1600" type="line"/>
    </contour>
  </outline>
</glyph>
<glyph name="braceright" format="2">
  <advance width="668"/>
  <unicode hex="007D"/>
  <outline>
    <contour>
      <point x="-14" y="-224" type="line"/>
      <point x="186" y="-256"/>
      <point x="308" y="-166"/>
      <point x="324" y="-4" type="curve" smooth="yes"/>
      <point x="364" y="478" type="line" smooth="yes"/>
      <point x="374" y="616"/>
      <point x="404" y="644"/>
      <point x="568" y="644" type="curve"/>
      <point x="590" y="740" type="line"/>
      <point x="426" y="740"/>
      <point x="408" y="768"/>
      <point x="454" y="904" type="curve" smooth="yes"/>
      <point x="616" y="1380" type="line" smooth="yes"/>
      <point x="670" y="1544"/>
      <point x="582" y="1636"/>
      <point x="374" y="1604" type="curve"/>
      <point x="354" y="1508" type="line"/>
      <point x="502" y="1522"/>
      <point x="536" y="1480"/>
      <point x="502" y="1374" type="curve" smooth="yes"/>
      <point x="352" y="920" type="line" smooth="yes"/>
      <point x="302" y="776"/>
      <point x="324" y="712"/>
      <point x="428" y="692" type="curve"/>
      <point x="426" y="690" type="line"/>
      <point x="310" y="668"/>
      <point x="266" y="606"/>
      <point x="254" y="462" type="curve" smooth="yes"/>
      <point x="212" y="6" type="line" smooth="yes"/>
      <point x="200" y="-102"/>
      <point x="148" y="-142"/>
      <point x="6" y="-128" type="curve"/>
    </contour>
  </outline>
</glyph>
<glyph name="asciitilde" format="2">
  <advance width="1296"/>
  <unicode hex="007E"/>
  <outline>
    <contour>
      <point x="893" y="540" type="curve" smooth="yes"/>
      <point x="978" y="540"/>
      <point x="1059" y="566"/>
      <point x="1150" y="637" type="curve"/>
      <point x="1174" y="752" type="line"/>
      <point x="1094" y="684"/>
      <point x="1002" y="636"/>
      <point x="914" y="636" type="curve" smooth="yes"/>
      <point x="784" y="636"/>
      <point x="654" y="784"/>
      <point x="482" y="784" type="curve" smooth="yes"/>
      <point x="394" y="784"/>
      <point x="314" y="756"/>
      <point x="225" y="688" type="curve"/>
      <point x="203" y="580" type="line"/>
      <point x="283" y="646"/>
      <point x="373" y="688"/>
      <point x="461" y="688" type="curve" smooth="yes"/>
      <point x="589" y="688"/>
      <point x="725" y="540"/>
    </contour>
  </outline>
</glyph>
<glyph name="exclamdown" format="2">
  <advance width="644"/>
  <unicode hex="00A1"/>
  <outline>
    <contour>
      <point x="48" y="-430" type="line"/>
      <point x="188" y="-430" type="line"/>
      <point x="372" y="530" type="line"/>
      <point x="272" y="530" type="line"/>
    </contour>
    <contour>
      <point x="388" y="792" type="curve" smooth="yes"/>
      <point x="454" y="792"/>
      <point x="512" y="840"/>
      <point x="512" y="908" type="curve" smooth="yes"/>
      <point x="512" y="960"/>
      <point x="470" y="1000"/>
      <point x="412" y="1000" type="curve" smooth="yes"/>
      <point x="346" y="1000"/>
      <point x="288" y="952"/>
      <point x="288" y="884" type="curve" smooth="yes"/>
      <point x="288" y="832"/>
      <point x="330" y="792"/>
    </contour>
  </outline>
</glyph>
<glyph name="twosuperior" format="2">
  <advance width="828"/>
  <unicode hex="00B2"/>
  <outline>
    <contour>
      <point x="162" y="722" type="line"/>
      <point x="766" y="722" type="line"/>
      <point x="806" y="814" type="line"/>
      <point x="322" y="814" type="line"/>
      <point x="540" y="972" type="line" smooth="yes"/>
      <point x="742" y="1118"/>
      <point x="888" y="1246"/>
      <point x="888" y="1414" type="curve" smooth="yes"/>
      <point x="888" y="1560"/>
      <point x="770" y="1652"/>
      <point x="600" y="1652" type="curve" smooth="yes"/>
      <point x="519" y="1652"/>
      <point x="437" y="1632"/>
      <point x="371" y="1594" type="curve"/>
      <point x="350" y="1488" type="line"/>
      <point x="418" y="1534"/>
      <point x="500" y="1558"/>
      <point x="576" y="1558" type="curve" smooth="yes"/>
      <point x="704" y="1558"/>
      <point x="784" y="1498"/>
      <point x="784" y="1402" type="curve" smooth="yes"/>
      <point x="784" y="1258"/>
      <point x="622" y="1132"/>
      <point x="436" y="994" type="curve" smooth="yes"/>
      <point x="180" y="804" type="line"/>
    </contour>
  </outline>
</glyph>
<glyph name="paragraph" format="2">
  <advance width="1204"/>
  <unicode hex="00B6"/>
  <outline>
    <contour>
      <point x="305" y="-420" type="line"/>
      <point x="409" y="-420" type="line"/>
      <point x="775" y="1300" type="line"/>
      <point x="981" y="1300" type="line"/>
      <point x="615" y="-420" type="line"/>
      <point x="719" y="-420" type="line"/>
      <point x="1085" y="1300" type="line"/>
      <point x="1307" y="1300" type="line"/>
      <point x="1329" y="1400" type="line"/>
      <point x="695" y="1400" type="line" smooth="yes"/>
      <point x="429" y="1400"/>
      <point x="211" y="1246"/>
      <point x="211" y="1008" type="curve" smooth="yes"/>
      <point x="211" y="824"/>
      <point x="351" y="688"/>
      <point x="583" y="692" type="curve"/>
      <point x="551" y="730" type="line"/>
    </contour>
  </outline>
</glyph>
<glyph name="onesuperior" format="2">
  <advance width="614"/>
  <unicode hex="00B9"/>
  <outline>
    <contour>
      <point x="388" y="722" type="line"/>
      <point x="488" y="722" type="line"/>
      <point x="684" y="1652" type="line"/>
      <point x="676" y="1652" type="line"/>
      <point x="298" y="1524" type="line"/>
      <point x="278" y="1432" type="line"/>
      <point x="558" y="1522" type="line"/>
    </contour>
  </outline>
</glyph>
<glyph name="questiondown" format="2">
  <advance width="948"/>
  <unicode hex="00BF"/>
  <outline>
    <contour>
      <point x="364" y="-460" type="curve" smooth="yes"/>
      <point x="472" y="-460"/>
      <point x="568" y="-438"/>
      <point x="652" y="-396" type="curve"/>
      <point x="680" y="-270" type="line"/>
      <point x="608" y="-318"/>
      <point x="500" y="-348"/>
      <point x="380" y="-348" type="curve" smooth="yes"/>
      <point x="200" y="-348"/>
      <point x="94" y="-280"/>
      <point x="94" y="-142" type="curve" smooth="yes"/>
      <point x="94" y="-18"/>
      <point x="188" y="40"/>
      <point x="348" y="132" type="curve" smooth="yes"/>
      <point x="554" y="250"/>
      <point x="614" y="340"/>
      <point x="622" y="592" type="curve"/>
      <point x="502" y="592" type="line"/>
      <point x="492" y="374"/>
      <point x="432" y="306"/>
      <point x="278" y="216" type="curve" smooth="yes"/>
      <point x="94" y="108"/>
      <point x="-28" y="10"/>
      <point x="-28" y="-160" type="curve" smooth="yes"/>
      <point x="-28" y="-350"/>
      <point x="130" y="-460"/>
    </contour>
    <contour>
      <point x="580" y="792" type="curve" smooth="yes"/>
      <point x="646" y="792"/>
      <point x="706" y="838"/>
      <point x="706" y="906" type="curve" smooth="yes"/>
      <point x="706" y="960"/>
      <point x="664" y="1000"/>
      <point x="606" y="1000" type="curve" smooth="yes"/>
      <point x="540" y="1000"/>
      <point x="482" y="952"/>
      <point x="482" y="884" type="curve" smooth="yes"/>
      <point x="482" y="830"/>
      <point x="522" y="792"/>
    </contour>
  </outline>
</glyph>
<glyph name="Eth" format="2">
  <advance width="1449"/>
  <unicode hex="00D0"/>
  <anchor x="532" y="742" name="bar"/>
  <anchor x="912" y="1400" name="top"/>
  <outline>
    <contour>
      <point x="112" y="698" type="line"/>
      <point x="936" y="698" type="line"/>
      <point x="954" y="786" type="line"/>
      <point x="130" y="786" type="line"/>
    </contour>
    <component base="D" xOffset="40"/>
  </outline>
</glyph>
<glyph name="thorn" format="2">
  <advance width="1260"/>
  <unicode hex="00FE"/>
  <outline>
    <contour>
      <point x="-21" y="-420" type="line"/>
      <point x="91" y="-420" type="line"/>
      <point x="221" y="188" type="line"/>
      <point x="291" y="62"/>
      <point x="431" y="-30"/>
      <point x="639" y="-30" type="curve" smooth="yes"/>
      <point x="943" y="-30"/>
      <point x="1181" y="242"/>
      <point x="1181" y="544" type="curve" smooth="yes"/>
      <point x="1181" y="790"/>
      <point x="1013" y="990"/>
      <point x="737" y="990" type="curve" smooth="yes"/>
      <point x="567" y="990"/>
      <point x="447" y="916"/>
      <point x="355" y="816" type="curve"/>
      <point x="497" y="1484" type="line"/>
      <point x="355" y="1342" type="line"/>
    </contour>
    <contour>
      <point x="631" y="78" type="curve" smooth="yes"/>
      <point x="417" y="78"/>
      <point x="275" y="210"/>
      <point x="275" y="416" type="curve" smooth="yes"/>
      <point x="275" y="666"/>
      <point x="447" y="882"/>
      <point x="707" y="882" type="curve" smooth="yes"/>
      <point x="921" y="882"/>
      <point x="1061" y="750"/>
      <point x="1061" y="544" type="curve" smooth="yes"/>
      <point x="1061" y="296"/>
      <point x="891" y="78"/>
    </contour>
  </outline>
</glyph>
<glyph name="aogonek" format="2">
  <advance width="1057"/>
  <unicode hex="0105"/>
  <anchor x="399" y="0" name="bottom"/>
  <anchor x="795" y="0" name="ogonek"/>
  <anchor x="601" y="960" name="top"/>
  <outline>
    <contour>
      <point x="556" y="-450" type="curve" smooth="yes"/>
      <point x="611" y="-450"/>
      <point x="663" y="-437"/>
      <point x="708" y="-411" type="curve"/>
      <point x="732" y="-298" type="line"/>
      <point x="691" y="-328"/>
      <point x="644" y="-343"/>
      <point x="593" y="-343" type="curve" smooth="yes"/>
      <point x="531" y="-343"/>
      <point x="502" y="-318"/>
      <point x="502" y="-253" type="curve" smooth="yes"/>
      <point x="502" y="-152"/>
      <point x="597" y="-63"/>
      <point x="795" y="0" type="curve"/>
      <point x="772.5" y="59.0" type="line"/>
      <point x="529.5" y="-1.0"/>
      <point x="376.0" y="-139.5"/>
      <point x="376" y="-276" type="curve" smooth="yes"/>
      <point x="376" y="-388"/>
      <point x="447" y="-450"/>
    </contour>
    <component base="a"/>
  </outline>
</glyph>
<glyph name="eogonek" format="2">
  <advance width="1108"/>
  <unicode hex="0119"/>
  <anchor x="485" y="0" name="bottom"/>
  <anchor x="781" y="0" name="ogonek"/>
  <anchor x="653" y="960" name="top"/>
  <outline>
    <contour>
      <point x="571" y="-30" type="curve" smooth="yes"/>
      <point x="669" y="-30"/>
      <point x="778" y="-10"/>
      <point x="874" y="35" type="curve"/>
      <point x="901" y="166" type="line"/>
      <point x="811" y="108"/>
      <point x="691" y="78"/>
      <point x="587" y="78" type="curve" smooth="yes"/>
      <point x="331" y="78"/>
      <point x="163" y="220"/>
      <point x="203" y="468" type="curve"/>
      <point x="1025" y="468" type="line"/>
      <point x="1093" y="750"/>
      <point x="935" y="990"/>
      <point x="633" y="990" type="curve" smooth="yes"/>
      <point x="321" y="990"/>
      <point x="77" y="720"/>
      <point x="77" y="404" type="curve" smooth="yes"/>
      <point x="77" y="144"/>
      <point x="273" y="-30"/>
    </contour>
    <contour>
      <point x="225" y="572" type="line"/>
      <point x="271" y="770"/>
      <point x="417" y="882"/>
      <point x="613" y="882" type="curve" smooth="yes"/>
      <point x="817" y="882"/>
      <point x="933" y="786"/>
      <point x="921" y="572" type="curve"/>
    </contour>
    <contour>
      <point x="542" y="-450" type="curve" smooth="yes"/>
      <point x="597" y="-450"/>
      <point x="649" y="-437"/>
      <point x="694" y="-411" type="curve"/>
      <point x="718" y="-298" type="line"/>
      <point x="677" y="-328"/>
      <point x="630" y="-343"/>
      <point x="579" y="-343" type="curve" smooth="yes"/>
      <point x="517" y="-343"/>
      <point x="488" y="-318"/>
      <point x="488" y="-253" type="curve" smooth="yes"/>
      <point x="488" y="-152"/>
      <point x="583" y="-63"/>
      <point x="781" y="0" type="curve"/>
      <point x="755" y="68" type="line"/>
      <point x="514" y="6"/>
      <point x="362" y="-136"/>
      <point x="362" y="-276" type="curve" smooth="yes"/>
      <point x="362" y="-388"/>
      <point x="433" y="-450"/>
    </contour>
  </outline>
</glyph>
<glyph name="Hbar" format="2">
  <advance width="1477"/>
  <unicode hex="0126"/>
  <outline>
    <contour>
      <point x="1040" y="0" type="line"/>
      <point x="1156" y="0" type="line"/>
      <point x="1452" y="1400" type="line"/>
      <point x="1336" y="1400" type="line"/>
    </contour>
    <contour>
      <point x="120" y="0" type="line"/>
      <point x="236" y="0" type="line"/>
      <point x="532" y="1400" type="line"/>
      <point x="416" y="1400" type="line"/>
    </contour>
    <contour>
      <point x="350" y="658" type="line"/>
      <point x="1208" y="658" type="line"/>
      <point x="1230" y="766" type="line"/>
      <point x="372" y="766" type="line"/>
    </contour>
    <contour>
      <point x="138" y="1030" type="line"/>
      <point x="1574" y="1030" type="line"/>
      <point x="1592" y="1118" type="line"/>
      <point x="156" y="1118" type="line"/>
    </contour>
  </outline>
</glyph>
<glyph name="kgreenlandic" format="2">
  <advance width="1028"/>
  <unicode hex="0138"/>
  <outline>
    <contour>
      <point x="68" y="0" type="line"/>
      <point x="180" y="0" type="line"/>
      <point x="256" y="356" type="line"/>
      <point x="482" y="542" type="line"/>
      <point x="732" y="0" type="line"/>
      <point x="866" y="0" type="line"/>
      <point x="578" y="610" type="line"/>
      <point x="996" y="960" type="line"/>
      <point x="850" y="960" type="line"/>
      <point x="286" y="500" type="line"/>
      <point x="392" y="1000" type="line"/>
      <point x="250" y="858" type="line"/>
    </contour>
  </outline>
</glyph>
<glyph name="oe" format="2">
  <advance width="1998"/>
  <unicode hex="0153"/>
  <outline>
    <contour>
      <point x="540" y="-30" type="curve" smooth="yes"/>
      <point x="842" y="-30"/>
      <point x="1100" y="232"/>
      <point x="1100" y="538" type="curve" smooth="yes"/>
      <point x="1100" y="786"/>
      <point x="920" y="990"/>
      <point x="644" y="990" type="curve" smooth="yes"/>
      <point x="342" y="990"/>
      <point x="80" y="728"/>
      <point x="80" y="424" type="curve" smooth="yes"/>
      <point x="80" y="172"/>
      <point x="262" y="-30"/>
    </contour>
    <contour>
      <point x="554" y="78" type="curve" smooth="yes"/>
      <point x="338" y="78"/>
      <point x="200" y="210"/>
      <point x="200" y="420" type="curve" smooth="yes"/>
      <point x="200" y="672"/>
      <point x="372" y="882"/>
      <point x="630" y="882" type="curve" smooth="yes"/>
      <point x="844" y="882"/>
      <point x="984" y="750"/>
      <point x="984" y="540" type="curve" smooth="yes"/>
      <point x="984" y="288"/>
      <point x="812" y="78"/>
    </contour>
    <contour>
      <point x="1444" y="-30" type="curve" smooth="yes"/>
      <point x="1556" y="-30"/>
      <point x="1680" y="0"/>
      <point x="1782" y="66" type="curve"/>
      <point x="1734" y="164" type="line"/>
      <point x="1656" y="108"/>
      <point x="1556" y="78"/>
      <point x="1462" y="78" type="curve" smooth="yes"/>
      <point x="1212" y="78"/>
      <point x="1052" y="230"/>
      <point x="1098" y="468" type="curve"/>
      <point x="1914" y="468" type="line"/>
      <point x="1992" y="742"/>
      <point x="1828" y="990"/>
      <point x="1526" y="990" type="curve" smooth="yes"/>
      <point x="1224" y="990"/>
      <point x="976" y="728"/>
      <point x="976" y="404" type="curve" smooth="yes"/>
      <point x="976" y="144"/>
      <point x="1160" y="-30"/>
    </contour>
    <contour>
      <point x="1118" y="572" type="line"/>
      <point x="1166" y="768"/>
      <point x="1312" y="882"/>
      <point x="1506" y="882" type="curve" smooth="yes"/>
      <point x="1720" y="882"/>
      <point x="1826" y="774"/>
      <point x="1812" y="572" type="curve"/>
    </contour>
  </outline>
</glyph>
<glyph name="Schwa" format="2">
  <advance width="1612"/>
  <unicode hex="018F"/>
  <outline>
    <contour>
      <point x="755" y="-30" type="curve" smooth="yes"/>
      <point x="1209" y="-30"/>
      <point x="1551" y="356"/>
      <point x="1551" y="816" type="curve" smooth="yes"/>
      <point x="1551" y="1180"/>
      <point x="1301" y="1430"/>
      <point x="897" y="1430" type="curve" smooth="yes"/>
      <point x="726" y="1430"/>
      <point x="563" y="1382"/>
      <point x="429" y="1308" type="curve"/>
      <point x="401" y="1178" type="line"/>
      <point x="527" y="1268"/>
      <point x="697" y="1318"/>
      <point x="875" y="1318" type="curve" smooth="yes"/>
      <point x="1225" y="1318"/>
      <point x="1431" y="1122"/>
      <point x="1431" y="812" type="curve" smooth="yes"/>
      <point x="1431" y="420"/>
      <point x="1167" y="82"/>
      <point x="771" y="82" type="curve" smooth="yes"/>
      <point x="455" y="82"/>
      <point x="215" y="338"/>
      <point x="285" y="638" type="curve"/>
      <point x="229" y="602" type="line"/>
      <point x="1439" y="602" type="line"/>
      <point x="1461" y="710" type="line"/>
      <point x="161" y="710" type="line"/>
      <point x="93" y="286"/>
      <point x="335" y="-30"/>
    </contour>
  </outline>
</glyph>
<glyph name="jdotless" format="2">
  <advance width="452"/>
  <unicode hex="0237"/>
  <anchor x="329" y="960" name="top"/>
  <outline>
    <contour>
      <point x="-125" y="-450" type="curve" smooth="yes"/>
      <point x="9" y="-450"/>
      <point x="103" y="-364"/>
      <point x="139" y="-194" type="curve" smooth="yes"/>
      <point x="393" y="1000" type="line"/>
      <point x="251" y="858" type="line"/>
      <point x="31" y="-174" type="line" smooth="yes"/>
      <point x="7" y="-286"/>
      <point x="-33" y="-342"/>
      <point x="-123" y="-342" type="curve" smooth="yes"/>
      <point x="-183" y="-342"/>
      <point x="-213" y="-328"/>
      <point x="-241" y="-310" type="curve"/>
      <point x="-264" y="-420" type="line"/>
      <point x="-227" y="-437"/>
      <point x="-179" y="-450"/>
    </contour>
  </outline>
</glyph>
<glyph name="dotaccentcomb" format="2">
  <unicode hex="0307"/>
  <anchor x="209" y="960" name="_top"/>
  <anchor x="277" y="1284" name="top"/>
  <outline>
    <contour>
      <point x="259" y="1162" type="curve" smooth="yes"/>
      <point x="313" y="1162"/>
      <point x="367" y="1210"/>
      <point x="367" y="1266" type="curve" smooth="yes"/>
      <point x="367" y="1312"/>
      <point x="331" y="1350"/>
      <point x="283" y="1350" type="curve" smooth="yes"/>
      <point x="229" y="1350"/>
      <point x="175" y="1302"/>
      <point x="175" y="1246" type="curve" smooth="yes"/>
      <point x="175" y="1202"/>
      <point x="211" y="1162"/>
    </contour>
  </outline>
</glyph>
<glyph name="dieresiscomb" format="2">
  <unicode hex="0308"/>
  <anchor x="391" y="960" name="_top"/>
  <anchor x="459" y="1284" name="top"/>
  <outline>
    <contour>
      <point x="259" y="1162" type="curve" smooth="yes"/>
      <point x="313" y="1162"/>
      <point x="367" y="1210"/>
      <point x="367" y="1266" type="curve" smooth="yes"/>
      <point x="367" y="1312"/>
      <point x="331" y="1350"/>
      <point x="283" y="1350" type="curve" smooth="yes"/>
      <point x="229" y="1350"/>
      <point x="175" y="1302"/>
      <point x="175" y="1246" type="curve" smooth="yes"/>
      <point x="175" y="1202"/>
      <point x="211" y="1162"/>
    </contour>
    <contour>
      <point x="623" y="1162" type="curve" smooth="yes"/>
      <point x="677" y="1162"/>
      <point x="731" y="1210"/>
      <point x="731" y="1266" type="curve" smooth="yes"/>
      <point x="731" y="1312"/>
      <point x="695" y="1350"/>
      <point x="647" y="1350" type="curve" smooth="yes"/>
      <point x="593" y="1350"/>
      <point x="539" y="1302"/>
      <point x="539" y="1246" type="curve" smooth="yes"/>
      <point x="539" y="1202"/>
      <point x="575" y="1162"/>
    </contour>
  </outline>
</glyph>
<glyph name="hookabovecomb" format="2">
  <unicode hex="0309"/>
  <anchor x="327" y="960" name="_top"/>
  <outline>
    <contour>
      <point x="325" y="1170" type="curve"/>
      <point x="415" y="1170" type="line"/>
      <point x="395" y="1252"/>
      <point x="411" y="1274"/>
      <point x="507" y="1310" type="curve" smooth="yes"/>
      <point x="599" y="1344"/>
      <point x="675" y="1384"/>
      <point x="675" y="1480" type="curve" smooth="yes"/>
      <point x="675" y="1582"/>
      <point x="555" y="1634"/>
      <point x="421" y="1634" type="curve" smooth="yes"/>
      <point x="361" y="1634"/>
      <point x="301" y="1624"/>
      <point x="249" y="1606" type="curve"/>
      <point x="231" y="1520" type="line"/>
      <point x="285" y="1540"/>
      <point x="355" y="1550"/>
      <point x="419" y="1550" type="curve" smooth="yes"/>
      <point x="509" y="1550"/>
      <point x="575" y="1514"/>
      <point x="575" y="1458" type="curve" smooth="yes"/>
      <point x="575" y="1398"/>
      <point x="525" y="1384"/>
      <point x="445" y="1360" type="curve" smooth="yes"/>
      <point x="329" y="1326"/>
      <point x="291" y="1268"/>
    </contour>
  </outline>
</glyph>
<glyph name="commaturnedabovecomb" format="2">
  <unicode hex="0312"/>
  <anchor x="216" y="960" name="_top"/>
  <outline>
    <contour>
      <point x="306" y="1244" type="curve" smooth="yes"/>
      <point x="362" y="1244"/>
      <point x="407" y="1281"/>
      <point x="407" y="1335" type="curve" smooth="yes"/>
      <point x="407" y="1388"/>
      <point x="349" y="1423"/>
      <point x="299" y="1414" type="curve"/>
      <point x="315" y="1477"/>
      <point x="392" y="1531"/>
      <point x="489" y="1534" type="curve"/>
      <point x="503" y="1606" type="line"/>
      <point x="339" y="1601"/>
      <point x="200" y="1491"/>
      <point x="200" y="1352" type="curve" smooth="yes"/>
      <point x="200" y="1286"/>
      <point x="242" y="1244"/>
    </contour>
  </outline>
</glyph>
<glyph name="dotbelowcomb" format="2">
  <unicode hex="0323"/>
  <anchor x="3" y="0" name="_bottom"/>
  <outline>
    <contour>
      <point x="-89" y="-472" type="curve" smooth="yes"/>
      <point x="-35" y="-472"/>
      <point x="19" y="-424"/>
      <point x="19" y="-368" type="curve" smooth="yes"/>
      <point x="19" y="-322"/>
      <point x="-17" y="-284"/>
      <point x="-65" y="-284" type="curve" smooth="yes"/>
      <point x="-119" y="-284"/>
      <point x="-173" y="-332"/>
      <point x="-173" y="-388" type="curve" smooth="yes"/>
      <point x="-173" y="-432"/>
      <point x="-137" y="-472"/>
    </contour>
  </outline>
</glyph>
<glyph name="dieresisbelowcomb" format="2">
  <unicode hex="0324"/>
  <anchor x="187" y="0" name="_bottom"/>
  <outline>
    <contour>
      <point x="-71" y="-390" type="curve" smooth="yes"/>
      <point x="-17" y="-390"/>
      <point x="37" y="-342"/>
      <point x="37" y="-286" type="curve" smooth="yes"/>
      <point x="37" y="-240"/>
      <point x="1" y="-202"/>
      <point x="-47" y="-202" type="curve" smooth="yes"/>
      <point x="-101" y="-202"/>
      <point x="-155" y="-250"/>
      <point x="-155" y="-306" type="curve" smooth="yes"/>
      <point x="-155" y="-350"/>
      <point x="-119" y="-390"/>
    </contour>
    <contour>
      <point x="293" y="-390" type="curve" smooth="yes"/>
      <point x="347" y="-390"/>
      <point x="401" y="-342"/>
      <point x="401" y="-286" type="curve" smooth="yes"/>
      <point x="401" y="-240"/>
      <point x="365" y="-202"/>
      <point x="317" y="-202" type="curve" smooth="yes"/>
      <point x="263" y="-202"/>
      <point x="209" y="-250"/>
      <point x="209" y="-306" type="curve" smooth="yes"/>
      <point x="209" y="-350"/>
      <point x="245" y="-390"/>
    </contour>
  </outline>
</glyph>
<glyph name="macronbelowcomb" format="2">
  <unicode hex="0331"/>
  <anchor x="196" y="0" name="_bottom"/>
  <outline>
    <contour>
      <point x="-172" y="-374" type="line"/>
      <point x="404" y="-374" type="line"/>
      <point x="428" y="-270" type="line"/>
      <point x="-148" y="-270" type="line"/>
    </contour>
  </outline>
</glyph>
<glyph name="Lambda" format="2">
  <advance width="1278"/>
  <unicode hex="039B"/>
  <outline>
    <contour>
      <point x="-61" y="0" type="line"/>
      <point x="75" y="0" type="line"/>
      <point x="787" y="1218" type="line"/>
      <point x="1007" y="0" type="line"/>
      <point x="1135" y="0" type="line"/>
      <point x="871" y="1400" type="line"/>
      <point x="771" y="1400" type="line"/>
    </contour>
  </outline>
</glyph>
<glyph name="Xi" format="2">
  <advance width="1224"/>
  <unicode hex="039E"/>
  <outline>
    <contour>
      <point x="40" y="0" type="line"/>
      <point x="960" y="0" type="line"/>
      <point x="1006" y="108" type="line"/>
      <point x="62" y="108" type="line"/>
    </contour>
    <contour>
      <point x="270" y="674" type="line"/>
      <point x="1014" y="674" type="line"/>
      <point x="1038" y="782" type="line"/>
      <point x="318" y="782" type="line"/>
    </contour>
    <contour>
      <point x="312" y="1292" type="line"/>
      <point x="1236" y="1292" type="line"/>
      <point x="1258" y="1400" type="line"/>
      <point x="358" y="1400" type="line"/>
    </contour>
  </outline>
</glyph>
<glyph name="Psi" format="2">
  <advance width="1518"/>
  <unicode hex="03A8"/>
  <outline>
    <contour>
      <point x="600" y="0" type="line"/>
      <point x="716" y="0" type="line"/>
      <point x="793" y="361" type="line"/>
      <point x="1267" y="361"/>
      <point x="1499" y="654"/>
      <point x="1499" y="1252" type="curve" smooth="yes"/>
      <point x="1499" y="1297"/>
      <point x="1497" y="1347"/>
      <point x="1495" y="1400" type="curve"/>
      <point x="1373" y="1400" type="line"/>
      <point x="1377" y="1333"/>
      <point x="1379" y="1272"/>
      <point x="1379" y="1217" type="curve" smooth="yes"/>
      <point x="1379" y="776"/>
      <point x="1237" y="476"/>
      <point x="816" y="470" type="curve"/>
      <point x="1014" y="1400" type="line"/>
      <point x="898" y="1400" type="line"/>
      <point x="701" y="475" type="line"/>
      <point x="488" y="499"/>
      <point x="351" y="603"/>
      <point x="351" y="831" type="curve" smooth="yes"/>
      <point x="351" y="1017"/>
      <point x="424" y="1250"/>
      <point x="541" y="1400" type="curve"/>
      <point x="410" y="1400" type="line"/>
      <point x="302" y="1252"/>
      <point x="233" y="997"/>
      <point x="233" y="807" type="curve" smooth="yes"/>
      <point x="233" y="526"/>
      <point x="409" y="395"/>
      <point x="678" y="367" type="curve"/>
    </contour>
  </outline>
</glyph>
<glyph name="Omega" format="2">
  <advance width="1612"/>
  <unicode hex="03A9"/>
  <anchor x="736" y="0" name="bottom"/>
  <anchor x="368" y="1400" name="topleft"/>
  <outline>
    <contour>
      <point x="-52" y="0" type="line"/>
      <point x="542" y="0" type="line"/>
      <point x="564" y="108" type="line"/>
      <point x="386" y="172"/>
      <point x="256" y="384"/>
      <point x="256" y="638" type="curve" smooth="yes"/>
      <point x="256" y="1014"/>
      <point x="558" y="1318"/>
      <point x="950" y="1318" type="curve" smooth="yes"/>
      <point x="1270" y="1318"/>
      <point x="1462" y="1128"/>
      <point x="1462" y="830" type="curve" smooth="yes"/>
      <point x="1462" y="494"/>
      <point x="1208" y="206"/>
      <point x="888" y="108" type="curve"/>
      <point x="866" y="0" type="line"/>
      <point x="1448" y="0" type="line"/>
      <point x="1494" y="108" type="line"/>
      <point x="1088" y="104" type="line"/>
      <point x="1382" y="236"/>
      <point x="1584" y="510"/>
      <point x="1584" y="838" type="curve" smooth="yes"/>
      <point x="1584" y="1180"/>
      <point x="1346" y="1430"/>
      <point x="974" y="1430" type="curve" smooth="yes"/>
      <point x="496" y="1430"/>
      <point x="134" y="1074"/>
      <point x="134" y="626" type="curve" smooth="yes"/>
      <point x="134" y="420"/>
      <point x="210" y="210"/>
      <point x="398" y="104" type="curve"/>
      <point x="-30" y="108" type="line"/>
    </contour>
  </outline>
</glyph>
<glyph name="kappa" format="2">
  <advance width="1057"/>
  <unicode hex="03BA"/>
  <outline>
    <contour>
      <point x="69" y="0" type="line"/>
      <point x="181" y="0" type="line"/>
      <point x="253" y="340" type="line"/>
      <point x="487" y="526" type="line"/>
      <point x="731" y="0" type="line"/>
      <point x="865" y="0" type="line"/>
      <point x="579" y="598" type="line"/>
      <point x="659" y="664" type="line" smooth="yes"/>
      <point x="833" y="808"/>
      <point x="921" y="888"/>
      <point x="1019" y="866" type="curve"/>
      <point x="1037" y="972" type="line"/>
      <point x="907" y="996"/>
      <point x="789" y="898"/>
      <point x="591" y="738" type="curve" smooth="yes"/>
      <point x="285" y="492" type="line"/>
      <point x="393" y="1000" type="line"/>
      <point x="251" y="860" type="line"/>
    </contour>
  </outline>
</glyph>
<glyph name="lambda" format="2">
  <advance width="1034"/>
  <unicode hex="03BB"/>
  <outline>
    <contour>
      <point x="-60" y="0" type="line"/>
      <point x="74" y="0" type="line"/>
      <point x="630" y="846" type="line"/>
      <point x="772" y="0" type="line"/>
      <point x="890" y="0" type="line"/>
      <point x="670" y="1292" type="line" smooth="yes"/>
      <point x="650" y="1412"/>
      <point x="580" y="1470"/>
      <point x="470" y="1470" type="curve" smooth="yes"/>
      <point x="434" y="1470"/>
      <point x="396" y="1464"/>
      <point x="340" y="1446" type="curve"/>
      <point x="322" y="1340" type="line"/>
      <point x="376" y="1358"/>
      <point x="420" y="1362"/>
      <point x="442" y="1362" type="curve" smooth="yes"/>
      <point x="530" y="1362"/>
      <point x="558" y="1300"/>
      <point x="570" y="1214" type="curve" smooth="yes"/>
      <point x="602" y="998" type="line"/>
    </contour>
  </outline>
</glyph>
<glyph name="xi" format="2">
  <advance width="886"/>
  <unicode hex="03BE"/>
  <outline>
    <contour>
      <point x="565" y="-420" type="line"/>
      <point x="655" y="-322"/>
      <point x="702" y="-223"/>
      <point x="702" y="-134" type="curve" smooth="yes"/>
      <point x="702" y="140"/>
      <point x="204" y="151"/>
      <point x="204" y="455" type="curve" smooth="yes"/>
      <point x="204" y="642"/>
      <point x="371" y="763"/>
      <point x="627" y="763" type="curve" smooth="yes"/>
      <point x="812" y="763" type="line"/>
      <point x="833" y="867" type="line"/>
      <point x="659" y="867" type="line" smooth="yes"/>
      <point x="506" y="867"/>
      <point x="394" y="967"/>
      <point x="394" y="1103" type="curve" smooth="yes"/>
      <point x="394" y="1264"/>
      <point x="517" y="1364"/>
      <point x="715" y="1364" type="curve" smooth="yes"/>
      <point x="836" y="1364"/>
      <point x="949" y="1340"/>
      <point x="1026" y="1299" type="curve"/>
      <point x="1049" y="1407" type="line"/>
      <point x="960" y="1447"/>
      <point x="846" y="1470"/>
      <point x="731" y="1470" type="curve" smooth="yes"/>
      <point x="460" y="1470"/>
      <point x="271" y="1315"/>
      <point x="271" y="1092" type="curve" smooth="yes"/>
      <point x="271" y="978"/>
      <point x="331" y="885"/>
      <point x="443" y="824" type="curve"/>
      <point x="215" y="772"/>
      <point x="80" y="631"/>
      <point x="80" y="442" type="curve" smooth="yes"/>
      <point x="80" y="80"/>
      <point x="583" y="46"/>
      <point x="583" y="-168" type="curve" smooth="yes"/>
      <point x="583" y="-229"/>
      <point x="539" y="-306"/>
      <point x="432" y="-420" type="curve"/>
    </contour>
  </outline>
</glyph>
<glyph name="Zhe-cy" format="2">
  <advance width="1910"/>
  <unicode hex="0416"/>
  <anchor x="1630" y="0" name="descender"/>
  <anchor x="1150" y="1400" name="top"/>
  <outline>
    <contour>
      <point x="1586" y="0" type="line"/>
      <point x="1730" y="0" type="line"/>
      <point x="1354" y="748" type="line"/>
      <point x="1950" y="1400" type="line"/>
      <point x="1804" y="1400" type="line"/>
      <point x="1214" y="754" type="line"/>
    </contour>
    <contour>
      <point x="-24" y="0" type="line"/>
      <point x="128" y="0" type="line"/>
      <point x="808" y="752" type="line"/>
      <point x="488" y="1400" type="line"/>
      <point x="352" y="1400" type="line"/>
      <point x="668" y="756" type="line"/>
    </contour>
    <contour>
      <point x="796" y="0" type="line"/>
      <point x="912" y="0" type="line"/>
      <point x="1058" y="698" type="line"/>
      <point x="1288" y="698" type="line"/>
      <point x="1312" y="806" type="line"/>
      <point x="1082" y="806" type="line"/>
      <point x="1208" y="1400" type="line"/>
      <point x="1092" y="1400" type="line"/>
      <point x="966" y="806" type="line"/>
      <point x="738" y="806" type="line"/>
      <point x="714" y="698" type="line"/>
      <point x="942" y="698" type="line"/>
    </contour>
  </outline>
</glyph>
<glyph name="Ze-cy" format="2">
  <advance width="1166"/>
  <unicode hex="0417"/>
  <anchor x="452" y="0" name="bottom"/>
  <anchor x="686" y="1400" name="top"/>
  <outline>
    <contour>
      <point x="472" y="-30" type="curve" smooth="yes"/>
      <point x="760" y="-30"/>
      <point x="1012" y="152"/>
      <point x="1012" y="416" type="curve" smooth="yes"/>
      <point x="1012" y="554"/>
      <point x="936" y="680"/>
      <point x="790" y="728" type="curve"/>
      <point x="972" y="766"/>
      <point x="1116" y="916"/>
      <point x="1116" y="1082" type="curve" smooth="yes"/>
      <point x="1116" y="1308"/>
      <point x="920" y="1430"/>
      <point x="672" y="1430" type="curve" smooth="yes"/>
      <point x="540" y="1430"/>
      <point x="400" y="1400"/>
      <point x="298" y="1344" type="curve"/>
      <point x="270" y="1216" type="line"/>
      <point x="376" y="1282"/>
      <point x="518" y="1318"/>
      <point x="656" y="1318" type="curve" smooth="yes"/>
      <point x="832" y="1318"/>
      <point x="998" y="1252"/>
      <point x="998" y="1080" type="curve" smooth="yes"/>
      <point x="998" y="892"/>
      <point x="802" y="778"/>
      <point x="574" y="778" type="curve" smooth="yes"/>
      <point x="318" y="778" type="line"/>
      <point x="272" y="670" type="line"/>
      <point x="588" y="670" type="line" smooth="yes"/>
      <point x="782" y="670"/>
      <point x="898" y="584"/>
      <point x="898" y="420" type="curve" smooth="yes"/>
      <point x="898" y="216"/>
      <point x="714" y="82"/>
      <point x="488" y="82" type="curve" smooth="yes"/>
      <point x="310" y="82"/>
      <point x="144" y="132"/>
      <point x="40" y="254" type="curve"/>
      <point x="12" y="124" type="line"/>
      <point x="130" y="18"/>
      <point x="302" y="-30"/>
    </contour>
  </outline>
</glyph>
<glyph name="Ii-cy" format="2">
  <advance width="1452"/>
  <unicode hex="0418"/>
  <anchor x="626" y="0" name="bottom"/>
  <anchor x="922" y="1400" name="top"/>
  <outline>
    <contour>
      <point x="100" y="0" type="line"/>
      <point x="206" y="0" type="line"/>
      <point x="1284" y="1186" type="line"/>
      <point x="1034" y="0" type="line"/>
      <point x="1150" y="0" type="line"/>
      <point x="1446" y="1400" type="line"/>
      <point x="1344" y="1400" type="line"/>
      <point x="260" y="210" type="line"/>
      <point x="512" y="1400" type="line"/>
      <point x="396" y="1400" type="line"/>
    </contour>
  </outline>
</glyph>
<glyph name="Ereversed-cy" format="2">
  <advance width="1379"/>
  <unicode hex="042D"/>
  <anchor x="454" y="0" name="bottom"/>
  <anchor x="678" y="1400" name="top"/>
  <outline>
    <contour>
      <point x="506" y="-30" type="curve" smooth="yes"/>
      <point x="972" y="-30"/>
      <point x="1308" y="302"/>
      <point x="1308" y="774" type="curve" smooth="yes"/>
      <point x="1308" y="1150"/>
      <point x="1046" y="1430"/>
      <point x="654" y="1430" type="curve" smooth="yes"/>
      <point x="504" y="1430"/>
      <point x="396" y="1404"/>
      <point x="292" y="1356" type="curve"/>
      <point x="266" y="1234" type="line"/>
      <point x="374" y="1294"/>
      <point x="482" y="1320"/>
      <point x="636" y="1320" type="curve" smooth="yes"/>
      <point x="968" y="1320"/>
      <point x="1190" y="1102"/>
      <point x="1190" y="778" type="curve" smooth="yes"/>
      <point x="1190" y="376"/>
      <point x="928" y="82"/>
      <point x="520" y="82" type="curve" smooth="yes"/>
      <point x="358" y="82"/>
      <point x="170" y="134"/>
      <point x="40" y="252" type="curve"/>
      <point x="16" y="138" type="line"/>
      <point x="150" y="22"/>
      <point x="332" y="-30"/>
    </contour>
    <contour>
      <point x="316" y="688" type="line"/>
      <point x="1208" y="688" type="line"/>
      <point x="1230" y="796" type="line"/>
      <point x="362" y="796" type="line"/>
    </contour>
  </outline>
</glyph>
<glyph name="sha-cy" format="2">
  <advance width="1708"/>
  <unicode hex="0448"/>
  <anchor x="1436" y="0" name="descender"/>
  <outline>
    <contour>
      <point x="68" y="0" type="line"/>
      <point x="1436" y="0" type="line"/>
      <point x="1648" y="1000" type="line"/>
      <point x="1506" y="858" type="line"/>
      <point x="1346" y="104" type="line"/>
      <point x="830" y="104" type="line"/>
      <point x="1020" y="1000" type="line"/>
      <point x="878" y="858" type="line"/>
      <point x="718" y="104" type="line"/>
      <point x="202" y="104" type="line"/>
      <point x="392" y="1000" type="line"/>
      <point x="250" y="858" type="line"/>
    </contour>
  </outline>
</glyph>
<glyph name="ereversed-cy" format="2">
  <advance width="975"/>
  <unicode hex="044D"/>
  <anchor x="298" y="0" name="bottom"/>
  <anchor x="498" y="960" name="top"/>
  <outline>
    <contour>
      <point x="336" y="-30" type="curve" smooth="yes"/>
      <point x="666" y="-30"/>
      <point x="896" y="240"/>
      <point x="896" y="548" type="curve" smooth="yes"/>
      <point x="896" y="822"/>
      <point x="712" y="990"/>
      <point x="442" y="990" type="curve" smooth="yes"/>
      <point x="351" y="990"/>
      <point x="248" y="962"/>
      <point x="174" y="922" type="curve"/>
      <point x="150" y="806" type="line"/>
      <point x="224" y="852"/>
      <point x="321" y="884"/>
      <point x="420" y="884" type="curve" smooth="yes"/>
      <point x="645" y="884"/>
      <point x="778" y="760"/>
      <point x="778" y="546" type="curve" smooth="yes"/>
      <point x="778" y="304"/>
      <point x="616" y="78"/>
      <point x="348" y="78" type="curve" smooth="yes"/>
      <point x="229" y="78"/>
      <point x="101" y="122"/>
      <point x="24" y="198" type="curve"/>
      <point x="-2" y="78" type="line"/>
      <point x="87" y="6"/>
      <point x="221" y="-30"/>
    </contour>
    <contour>
      <point x="150" y="440" type="line"/>
      <point x="782" y="440" type="line"/>
      <point x="804" y="544" type="line"/>
      <point x="196" y="544" type="line"/>
    </contour>
  </outline>
</glyph>
<glyph name="ia-cy" format="2">
  <advance width="1064"/>
  <unicode hex="044F"/>
  <anchor x="644" y="960" name="top"/>
  <outline>
    <contour>
      <point x="8" y="0" type="line"/>
      <point x="152" y="0" type="line"/>
      <point x="570" y="390" type="line"/>
      <point x="788" y="390" type="line"/>
      <point x="810" y="492" type="line"/>
      <point x="532" y="492" type="line" smooth="yes"/>
      <point x="394" y="492"/>
      <point x="312" y="552"/>
      <point x="312" y="656" type="curve" smooth="yes"/>
      <point x="312" y="782"/>
      <point x="416" y="856"/>
      <point x="574" y="856" type="curve" smooth="yes"/>
      <point x="862" y="856" type="line"/>
      <point x="680" y="0" type="line"/>
      <point x="792" y="0" type="line"/>
      <point x="996" y="960" type="line"/>
      <point x="584" y="960" type="line" smooth="yes"/>
      <point x="368" y="960"/>
      <point x="194" y="852"/>
      <point x="192" y="650" type="curve" smooth="yes"/>
      <point x="190" y="494"/>
      <point x="332" y="388"/>
      <point x="512" y="390" type="curve"/>
      <point x="466" y="428" type="line"/>
    </contour>
  </outline>
</glyph>
<glyph name="Izhitsa-cy" format="2">
  <advance width="1314"/>
  <unicode hex="0474"/>
  <outline>
    <contour>
      <point x="492" y="0" type="line"/>
      <point x="590" y="0" type="line"/>
      <point x="1232" y="1072" type="line" smooth="yes"/>
      <point x="1312" y="1206"/>
      <point x="1382" y="1314"/>
      <point x="1524" y="1292" type="curve"/>
      <point x="1546" y="1400" type="line"/>
      <point x="1370" y="1440"/>
      <point x="1256" y="1340"/>
      <point x="1106" y="1084" type="curve" smooth="yes"/>
      <point x="578" y="180" type="line"/>
      <point x="352" y="1400" type="line"/>
      <point x="226" y="1400" type="line"/>
    </contour>
  </outline>
</glyph>
<glyph name="izhitsa-cy" format="2">
  <advance width="1042"/>
  <unicode hex="0475"/>
  <outline>
    <contour>
      <point x="324" y="0" type="line"/>
      <point x="446" y="0" type="line"/>
      <point x="816" y="648" type="line" smooth="yes"/>
      <point x="908" y="808"/>
      <point x="988" y="874"/>
      <point x="1104" y="856" type="curve"/>
      <point x="1128" y="970" type="line"/>
      <point x="954" y="1008"/>
      <point x="828" y="898"/>
      <point x="706" y="674" type="curve" smooth="yes"/>
      <point x="410" y="136" type="line"/>
      <point x="272" y="960" type="line"/>
      <point x="144" y="960" type="line"/>
    </contour>
  </outline>
</glyph>
<glyph name="Gheupturn-cy" format="2">
  <advance width="1000"/>
  <unicode hex="0490"/>
  <anchor x="486" y="722" name="bar"/>
  <anchor x="216" y="0" name="descender"/>
  <anchor x="760" y="1400" name="top"/>
  <outline>
    <contour>
      <point x="994" y="1292" type="line"/>
      <point x="1102" y="1292" type="line"/>
      <point x="1214" y="1828" type="line"/>
      <point x="1078" y="1692" type="line"/>
    </contour>
    <component base="Ge-cy"/>
  </outline>
</glyph>
<glyph name="gheupturn-cy" format="2">
  <advance width="831"/>
  <unicode hex="0491"/>
  <anchor x="344" y="486" name="bar"/>
  <anchor x="180" y="0" name="descender"/>
  <anchor x="574" y="960" name="top"/>
  <outline>
    <contour>
      <point x="748" y="856" type="line"/>
      <point x="852" y="856" type="line"/>
      <point x="952" y="1324" type="line"/>
      <point x="820" y="1196" type="line"/>
    </contour>
    <component base="ge-cy"/>
  </outline>
</glyph>
<glyph name="ghemiddlehook-cy" format="2">
  <advance width="1067"/>
  <unicode hex="0495"/>
  <anchor x="344" y="486" name="bar"/>
  <anchor x="180" y="0" name="descender"/>
  <anchor x="574" y="960" name="top"/>
  <outline>
    <contour>
      <point x="482" y="-194" type="line"/>
      <point x="724" y="-138"/>
      <point x="894" y="52"/>
      <point x="894" y="260" type="curve" smooth="yes"/>
      <point x="894" y="482"/>
      <point x="716" y="586"/>
      <point x="498" y="586" type="curve" smooth="yes"/>
      <point x="406" y="586"/>
      <point x="306" y="568"/>
      <point x="210" y="536" type="curve"/>
      <point x="192" y="440" type="line"/>
      <point x="292" y="474"/>
      <point x="382" y="488"/>
      <point x="468" y="488" type="curve" smooth="yes"/>
      <point x="666" y="488"/>
      <point x="782" y="400"/>
      <point x="782" y="246" type="curve" smooth="yes"/>
      <point x="782" y="88"/>
      <point x="644" y="-60"/>
      <point x="446" y="-108" type="curve"/>
    </contour>
    <component base="ge-cy"/>
  </outline>
</glyph>
<glyph name="Enghe-cy" format="2">
  <advance width="1920"/>
  <unicode hex="04A4"/>
  <anchor x="1136" y="0" name="descender"/>
  <anchor x="914" y="1400" name="top"/>
  <anchor x="316" y="1400" name="topleft"/>
  <outline>
    <contour>
      <point x="1410" y="1292" type="line"/>
      <point x="2022" y="1292" type="line"/>
      <point x="2044" y="1400" type="line"/>
      <point x="1316" y="1400" type="line"/>
    </contour>
    <component base="En-cy"/>
  </outline>
</glyph>
<glyph name="ustraight-cy" format="2">
  <advance width="968"/>
  <unicode hex="04AF"/>
  <anchor x="368" y="-80" name="bar"/>
  <outline>
    <contour>
      <point x="240" y="-420" type="line"/>
      <point x="352" y="-420" type="line"/>
      <point x="442" y="0" type="line"/>
      <point x="1028" y="960" type="line"/>
      <point x="896" y="960" type="line"/>
      <point x="388" y="102" type="line"/>
      <point x="422" y="96" type="line"/>
      <point x="274" y="960" type="line"/>
      <point x="144" y="960" type="line"/>
      <point x="330" y="4" type="line"/>
    </contour>
  </outline>
</glyph>
<glyph name="Germandbls" format="2">
  <advance width="1391"/>
  <unicode hex="1E9E"/>
  <outline>
    <contour>
      <point x="831" y="-29" type="curve" smooth="yes"/>
      <point x="1067" y="-29"/>
      <point x="1275" y="96"/>
      <point x="1275" y="290" type="curve" smooth="yes"/>
      <point x="1275" y="540"/>
      <point x="943" y="602"/>
      <point x="943" y="792" type="curve" smooth="yes"/>
      <point x="943" y="926"/>
      <point x="1101" y="1048"/>
      <point x="1309" y="1218" type="curve"/>
      <point x="1329" y="1298" type="line"/>
      <point x="1189" y="1386"/>
      <point x="1051" y="1430"/>
      <point x="883" y="1430" type="curve" smooth="yes"/>
      <point x="593" y="1430"/>
      <point x="357" y="1226"/>
      <point x="289" y="908" type="curve" smooth="yes"/>
      <point x="97" y="0" type="line"/>
      <point x="213" y="0" type="line"/>
      <point x="405" y="908" type="line" smooth="yes"/>
      <point x="461" y="1172"/>
      <point x="631" y="1320"/>
      <point x="865" y="1320" type="curve" smooth="yes"/>
      <point x="1015" y="1320"/>
      <point x="1077" y="1290"/>
      <point x="1177" y="1242" type="curve"/>
      <point x="931" y="1030"/>
      <point x="811" y="942"/>
      <point x="811" y="776" type="curve" smooth="yes"/>
      <point x="811" y="522"/>
      <point x="1145" y="494"/>
      <point x="1145" y="284" type="curve" smooth="yes"/>
      <point x="1145" y="154"/>
      <point x="1021" y="76"/>
      <point x="855" y="76" type="curve" smooth="yes"/>
      <point x="751" y="76"/>
      <point x="657" y="96"/>
      <point x="579" y="126" type="curve"/>
      <point x="555" y="10" type="line"/>
      <point x="636" y="-11"/>
      <point x="748" y="-29"/>
    </contour>
  </outline>
</glyph>
<glyph name="endash" format="2">
  <advance width="1000"/>
  <unicode hex="2013"/>
  <outline>
    <contour>
      <point x="67" y="514" type="line"/>
      <point x="947" y="514" type="line"/>
      <point x="967" y="606" type="line"/>
      <point x="87" y="606" type="line"/>
    </contour>
  </outline>
</glyph>
<glyph name="emdash" format="2">
  <advance width="2000"/>
  <unicode hex="2014"/>
  <outline>
    <contour>
      <point x="257" y="514" type="line"/>
      <point x="1757" y="514" type="line"/>
      <point x="1777" y="606" type="line"/>
      <point x="277" y="606" type="line"/>
    </contour>
  </outline>
</glyph>
<glyph name="dagger" format="2">
  <advance width="1210"/>
  <unicode hex="2020"/>
  <outline>
    <contour>
      <point x="450" y="-12" type="line"/>
      <point x="550" y="-12" type="line"/>
      <point x="780" y="1066" type="line"/>
      <point x="1198" y="1066" type="line"/>
      <point x="1218" y="1164" type="line"/>
      <point x="800" y="1164" type="line"/>
      <point x="894" y="1600" type="line"/>
      <point x="794" y="1600" type="line"/>
      <point x="700" y="1164" type="line"/>
      <point x="282" y="1164" type="line"/>
      <point x="262" y="1066" type="line"/>
      <point x="680" y="1066" type="line"/>
    </contour>
  </outline>
</glyph>
<glyph name="guilsinglleft" format="2">
  <advance width="574"/>
  <unicode hex="2039"/>
  <outline>
    <contour>
      <point x="304" y="148" type="line"/>
      <point x="414" y="148" type="line"/>
      <point x="186" y="492" type="line"/>
      <point x="562" y="848" type="line"/>
      <point x="440" y="848" type="line"/>
      <point x="64" y="498" type="line"/>
    </contour>
  </outline>
</glyph>
<glyph name="guilsinglright" format="2">
  <advance width="573"/>
  <unicode hex="203A"/>
  <outline>
    <contour>
      <point x="141" y="148" type="line"/>
      <point x="517" y="498" type="line"/>
      <point x="277" y="848" type="line"/>
      <point x="167" y="848" type="line"/>
      <point x="395" y="504" type="line"/>
      <point x="19" y="148" type="line"/>
    </contour>
  </outline>
</glyph>
<glyph name="fraction" format="2">
  <advance width="386"/>
  <unicode hex="2044"/>
  <outline>
    <contour>
      <point x="-245" y="0" type="line"/>
      <point x="830" y="1400" type="line"/>
      <point x="731" y="1400" type="line"/>
      <point x="-350" y="0" type="line"/>
    </contour>
  </outline>
</glyph>
<glyph name="foursuperior" format="2">
  <advance width="846"/>
  <unicode hex="2074"/>
  <outline>
    <contour>
      <point x="580" y="722" type="line"/>
      <point x="676" y="722" type="line"/>
      <point x="718" y="918" type="line"/>
      <point x="872" y="918" type="line"/>
      <point x="892" y="1010" type="line"/>
      <point x="736" y="1010" type="line"/>
      <point x="782" y="1226" type="line"/>
      <point x="686" y="1226" type="line"/>
      <point x="640" y="1010" type="line"/>
      <point x="278" y="1010" type="line"/>
      <point x="768" y="1632" type="line"/>
      <point x="652" y="1632" type="line"/>
      <point x="158" y="1002" type="line"/>
      <point x="142" y="918" type="line"/>
      <point x="622" y="918" type="line"/>
    </contour>
  </outline>
</glyph>
<glyph name="franc" format="2">
  <advance width="1296"/>
  <unicode hex="20A3"/>
  <outline>
    <contour>
      <point x="92" y="258" type="line"/>
      <point x="644" y="258" type="line"/>
      <point x="666" y="358" type="line"/>
      <point x="114" y="358" type="line"/>
    </contour>
    <component base="_part.franc" xOffset="182"/>
  </outline>
</glyph>
<glyph name="trademark" format="2">
  <advance width="1874"/>
  <unicode hex="2122"/>
  <anchor x="474" y="984" name="bar"/>
  <anchor x="386" y="560" name="bottom"/>
  <anchor x="562" y="1400" name="top"/>
  <outline>
    <contour>
      <point x="332" y="560" type="line"/>
      <point x="438" y="560" type="line"/>
      <point x="596" y="1304" type="line"/>
      <point x="852" y="1304" type="line"/>
      <point x="870" y="1400" type="line"/>
      <point x="266" y="1400" type="line"/>
      <point x="226" y="1304" type="line"/>
      <point x="492" y="1304" type="line"/>
    </contour>
    <contour>
      <point x="854" y="560" type="line"/>
      <point x="958" y="560" type="line"/>
      <point x="1098" y="1218" type="line"/>
      <point x="1300" y="752" type="line"/>
      <point x="1386" y="752" type="line"/>
      <point x="1784" y="1202" type="line"/>
      <point x="1646" y="560" type="line"/>
      <point x="1750" y="560" type="line"/>
      <point x="1928" y="1400" type="line"/>
      <point x="1830" y="1400" type="line"/>
      <point x="1364" y="868" type="line"/>
      <point x="1136" y="1400" type="line"/>
      <point x="1032" y="1400" type="line"/>
    </contour>
  </outline>
</glyph>
<glyph name="leftArrow" format="2">
  <advance width="1801"/>
  <unicode hex="2190"/>
  <outline>
    <contour>
      <point x="708" y="170" type="line"/>
      <point x="776" y="238" type="line"/>
      <point x="328" y="684" type="line"/>
      <point x="1828" y="684" type="line"/>
      <point x="1828" y="780" type="line"/>
      <point x="328" y="780" type="line"/>
      <point x="776" y="1226" type="line"/>
      <point x="708" y="1294" type="line"/>
      <point x="146" y="732" type="line"/>
    </contour>
  </outline>
</glyph>
<glyph name="southEastArrow" format="2">
  <advance width="2196"/>
  <unicode hex="2198"/>
  <outline>
    <contour>
      <point x="1111" y="0" type="line"/>
      <point x="1905" y="0" type="line"/>
      <point x="1903" y="794" type="line"/>
      <point x="1809" y="794" type="line"/>
      <point x="1809" y="164" type="line"/>
      <point x="581" y="1392" type="line"/>
      <point x="513" y="1324" type="line"/>
      <point x="1741" y="96" type="line"/>
      <point x="1111" y="96" type="line"/>
    </contour>
  </outline>
</glyph>
<glyph name="minus" format="2">
  <advance width="1296"/>
  <unicode hex="2212"/>
  <outline>
    <contour>
      <point x="209" y="616" type="line"/>
      <point x="1145" y="616" type="line"/>
      <point x="1165" y="712" type="line"/>
      <point x="229" y="712" type="line"/>
    </contour>
  </outline>
</glyph>
<glyph name="divisionslash" format="2">
  <advance width="1296"/>
  <unicode hex="2215"/>
  <outline>
    <contour>
      <point x="211" y="0" type="line"/>
      <point x="1286" y="1400" type="line"/>
      <point x="1187" y="1400" type="line"/>
      <point x="106" y="0" type="line"/>
    </contour>
  </outline>
</glyph>
<glyph name=".notdef" format="2">
  <advance width="1234"/>
  <outline>
    <contour>
      <point x="70" y="0" type="line"/>
      <point x="962" y="0" type="line"/>
      <point x="1258" y="1400" type="line"/>
      <point x="366" y="1400" type="line"/>
    </contour>
    <contour>
      <point x="204" y="106" type="line"/>
      <point x="456" y="1296" type="line"/>
      <point x="1124" y="1296" type="line"/>
      <point x="872" y="106" type="line"/>
    </contour>
  </outline>
</glyph>
<glyph name="_part.Zhe-cy" format="2">
  <advance width="2112"/>
  <anchor x="1810" y="0" name="descender"/>
  <anchor x="1250" y="1400" name="top"/>
  <outline>
    <contour>
      <point x="1774" y="0" type="line"/>
      <point x="1920" y="0" type="line"/>
      <point x="1484" y="748" type="line"/>
      <point x="2128" y="1400" type="line"/>
      <point x="1984" y="1400" type="line"/>
      <point x="1344" y="754" type="line"/>
    </contour>
    <contour>
      <point x="-12" y="0" type="line"/>
      <point x="142" y="0" type="line"/>
      <point x="880" y="752" type="line"/>
      <point x="510" y="1400" type="line"/>
      <point x="374" y="1400" type="line"/>
      <point x="740" y="756" type="line"/>
    </contour>
    <contour>
      <point x="896" y="0" type="line"/>
      <point x="1012" y="0" type="line"/>
      <point x="1160" y="698" type="line"/>
      <point x="1414" y="698" type="line"/>
      <point x="1436" y="806" type="line"/>
      <point x="1182" y="806" type="line"/>
      <point x="1308" y="1400" type="line"/>
      <point x="1192" y="1400" type="line"/>
      <point x="1066" y="806" type="line"/>
      <point x="812" y="806" type="line"/>
      <point x="790" y="698" type="line"/>
      <point x="1044" y="698" type="line"/>
    </contour>
  </outline>
</glyph>
<glyph name="_part.currencyBarHorizontalDoubl" format="2">
  <advance width="1296"/>
  <anchor x="798" y="1400" name="_top"/>
  <outline>
    <contour>
      <point x="128" y="792" type="line"/>
      <point x="1304" y="792" type="line"/>
      <point x="1324" y="892" type="line"/>
      <point x="148" y="892" type="line"/>
    </contour>
    <contour>
      <point x="64" y="484" type="line"/>
      <point x="1240" y="484" type="line"/>
      <point x="1260" y="584" type="line"/>
      <point x="84" y="584" type="line"/>
    </contour>
  </outline>
</glyph>
<glyph name="_part.currencyBarHorizontalSingle" format="2">
  <advance width="1296"/>
  <anchor x="844" y="1400" name="_top"/>
  <outline>
    <contour>
      <point x="94" y="638" type="line"/>
      <point x="1270" y="638" type="line"/>
      <point x="1290" y="738" type="line"/>
      <point x="114" y="738" type="line"/>
    </contour>
  </outline>
</glyph>
<glyph name="_part.cy-desc-lc-reversed" format="2">
  <advance width="1200"/>
  <anchor x="1126" y="0" name="_descender"/>
  <outline>
    <contour>
      <point x="944" y="-236" type="line"/>
      <point x="994" y="0" type="line"/>
      <point x="1206" y="0" type="line"/>
      <point x="1228" y="104" type="line"/>
      <point x="912" y="104" type="line"/>
      <point x="812" y="-364" type="line"/>
    </contour>
  </outline>
</glyph>
<glyph name="_part.cy-desc-lc-stem" format="2">
  <advance width="1200"/>
  <anchor x="1102" y="0" name="_descender"/>
  <outline>
    <contour>
      <point x="1024" y="-364" type="line"/>
      <point x="1156" y="-236" type="line"/>
      <point x="1228" y="104" type="line"/>
      <point x="1124" y="104" type="line"/>
    </contour>
  </outline>
</glyph>
<glyph name="_part.cy-desc-uc-reversed-stem" format="2">
  <advance width="576"/>
  <anchor x="-208" y="0" name="_descender"/>
  <outline>
    <contour>
      <point x="-406" y="-428" type="line"/>
      <point x="-270" y="-292" type="line"/>
      <point x="-208" y="0" type="line"/>
      <point x="-182" y="20" type="line"/>
      <point x="-152" y="194" type="line"/>
      <point x="-306" y="40" type="line"/>
    </contour>
  </outline>
</glyph>
<glyph name="_part.cy-desc-uc-reversed" format="2">
  <advance width="576"/>
  <anchor x="-96" y="0" name="_descender"/>
  <outline>
    <contour>
      <point x="-406" y="-428" type="line"/>
      <point x="-270" y="-292" type="line"/>
      <point x="-208" y="0" type="line"/>
      <point x="-48" y="0" type="line"/>
      <point x="-24" y="108" type="line"/>
      <point x="-292" y="108" type="line"/>
    </contour>
  </outline>
</glyph>
<glyph name="_part.cy-desc-uc-stem" format="2">
  <advance width="576"/>
  <anchor x="-146" y="0" name="_descender"/>
  <outline>
    <contour>
      <point x="-236" y="-428" type="line"/>
      <point x="-100" y="-292" type="line"/>
      <point x="-16" y="108" type="line"/>
      <point x="-164" y="108" type="line"/>
      <point x="-186" y="0" type="line"/>
      <point x="-146" y="0" type="line"/>
    </contour>
  </outline>
</glyph>
<glyph name="_part.cy-descender-lc-center" format="2">
  <advance width="576"/>
  <anchor x="-116" y="0" name="_bottom"/>
  <outline>
    <contour>
      <point x="-246" y="-366" type="line"/>
      <point x="-114" y="-234" type="line"/>
      <point x="-58" y="28" type="line"/>
      <point x="-162" y="28" type="line"/>
    </contour>
  </outline>
</glyph>
<glyph name="_part.cy-descender-uc-center" format="2">
  <advance width="576"/>
  <anchor x="-110" y="0" name="_bottom"/>
  <outline>
    <contour>
      <point x="-254" y="-428" type="line"/>
      <point x="-118" y="-292" type="line"/>
      <point x="-50" y="28" type="line"/>
      <point x="-158" y="28" type="line"/>
    </contour>
  </outline>
</glyph>
<glyph name="_part.hryvnia" format="2">
  <advance width="1296"/>
  <anchor x="798" y="1400" name="top"/>
  <outline>
    <contour>
      <point x="630" y="-30" type="curve" smooth="yes"/>
      <point x="752" y="-30"/>
      <point x="886" y="-4"/>
      <point x="986" y="44" type="curve"/>
      <point x="1014" y="170" type="line"/>
      <point x="902" y="112"/>
      <point x="770" y="78"/>
      <point x="636" y="78" type="curve" smooth="yes"/>
      <point x="458" y="78"/>
      <point x="294" y="152"/>
      <point x="294" y="320" type="curve" smooth="yes"/>
      <point x="294" y="506"/>
      <point x="464" y="568"/>
      <point x="624" y="638" type="curve" smooth="yes"/>
      <point x="738" y="688" type="line" smooth="yes"/>
      <point x="938" y="776"/>
      <point x="1144" y="864"/>
      <point x="1144" y="1092" type="curve" smooth="yes"/>
      <point x="1144" y="1314"/>
      <point x="932" y="1428"/>
      <point x="690" y="1428" type="curve" smooth="yes"/>
      <point x="578" y="1428"/>
      <point x="470" y="1402"/>
      <point x="384" y="1358" type="curve"/>
      <point x="356" y="1234" type="line"/>
      <point x="452" y="1292"/>
      <point x="572" y="1324"/>
      <point x="690" y="1324" type="curve" smooth="yes"/>
      <point x="874" y="1324"/>
      <point x="1036" y="1236"/>
      <point x="1036" y="1078" type="curve" smooth="yes"/>
      <point x="1036" y="896"/>
      <point x="870" y="848"/>
      <point x="702" y="776" type="curve" smooth="yes"/>
      <point x="572" y="720" type="line" smooth="yes"/>
      <point x="382" y="638"/>
      <point x="184" y="546"/>
      <point x="184" y="310" type="curve" smooth="yes"/>
      <point x="184" y="82"/>
      <point x="384" y="-30"/>
    </contour>
  </outline>
</glyph>
<glyph name="_part.kaverticalstroke-cy" format="2">
  <advance width="1050"/>
  <anchor x="442" y="512" name="center"/>
  <outline>
    <contour>
      <point x="748" y="0" type="line"/>
      <point x="888" y="0" type="line"/>
      <point x="642" y="522" type="line"/>
      <point x="1016" y="960" type="line"/>
      <point x="896" y="960" type="line"/>
      <point x="518" y="518" type="line"/>
    </contour>
    <contour>
      <point x="68" y="0" type="line"/>
      <point x="180" y="0" type="line"/>
      <point x="278" y="460" type="line"/>
      <point x="540" y="460" type="line"/>
      <point x="562" y="564" type="line"/>
      <point x="300" y="564" type="line"/>
      <point x="392" y="1000" type="line"/>
      <point x="250" y="858" type="line"/>
    </contour>
  </outline>
</glyph>
<glyph name="_part.kip" format="2">
  <advance width="1296"/>
  <outline>
    <contour>
      <point x="998" y="0" type="line"/>
      <point x="1130" y="0" type="line"/>
      <point x="732" y="676" type="line"/>
      <point x="1380" y="1400" type="line"/>
      <point x="1250" y="1400" type="line"/>
      <point x="602" y="682" type="line"/>
    </contour>
    <contour>
      <point x="216" y="0" type="line"/>
      <point x="328" y="0" type="line"/>
      <point x="624" y="1400" type="line"/>
      <point x="512" y="1400" type="line"/>
    </contour>
  </outline>
</glyph>
<glyph name="_part.ogonek" format="2">
  <advance width="2"/>
  <anchor x="-456" y="0" name="_ogonek"/>
  <outline>
    <contour>
      <point x="-695" y="-450" type="curve" smooth="yes"/>
      <point x="-640" y="-450"/>
      <point x="-588" y="-437"/>
      <point x="-543" y="-411" type="curve"/>
      <point x="-519" y="-298" type="line"/>
      <point x="-560" y="-328"/>
      <point x="-607" y="-343"/>
      <point x="-658" y="-343" type="curve" smooth="yes"/>
      <point x="-720" y="-343"/>
      <point x="-749" y="-318"/>
      <point x="-749" y="-253" type="curve" smooth="yes"/>
      <point x="-749" y="-152"/>
      <point x="-654" y="-63"/>
      <point x="-456" y="0" type="curve"/>
      <point x="-482" y="68" type="line"/>
      <point x="-723" y="6"/>
      <point x="-875" y="-136"/>
      <point x="-875" y="-276" type="curve" smooth="yes"/>
      <point x="-875" y="-388"/>
      <point x="-804" y="-450"/>
    </contour>
  </outline>
</glyph>
<glyph name="_part.tse-cy" format="2">
  <advance width="1154"/>
  <anchor x="476" y="0" name="bottom"/>
  <anchor x="882" y="0" name="descender"/>
  <outline>
    <contour>
      <point x="70" y="0" type="line"/>
      <point x="882" y="0" type="line"/>
      <point x="1092" y="1000" type="line"/>
      <point x="950" y="858" type="line"/>
      <point x="790" y="104" type="line"/>
      <point x="202" y="104" type="line"/>
      <point x="392" y="1000" type="line"/>
      <point x="250" y="858" type="line"/>
    </contour>
  </outline>
</glyph>
<glyph name="_part.verticalstroke" format="2">
  <advance width="1200"/>
  <anchor x="506" y="780" name="_center"/>
  <outline>
    <contour>
      <point x="396" y="500" type="line"/>
      <point x="496" y="500" type="line"/>
      <point x="624" y="1100" type="line"/>
      <point x="496" y="974" type="line"/>
    </contour>
  </outline>
</glyph>
<glyph name="aogonek.ss01" format="2">
  <advance width="1261"/>
  <anchor x="527" y="0" name="bottom"/>
  <anchor x="989" y="0" name="ogonek"/>
  <anchor x="679" y="960" name="top"/>
  <outline>
    <contour>
      <point x="750" y="-450" type="curve" smooth="yes"/>
      <point x="805" y="-450"/>
      <point x="857" y="-437"/>
      <point x="902" y="-411" type="curve"/>
      <point x="926" y="-298" type="line"/>
      <point x="885" y="-328"/>
      <point x="838" y="-343"/>
      <point x="787" y="-343" type="curve" smooth="yes"/>
      <point x="725" y="-343"/>
      <point x="696" y="-318"/>
      <point x="696" y="-253" type="curve" smooth="yes"/>
      <point x="696" y="-152"/>
      <point x="791" y="-63"/>
      <point x="989" y="0" type="curve"/>
      <point x="966.5" y="59.0" type="line"/>
      <point x="723.5" y="-1.0"/>
      <point x="570.0" y="-139.5"/>
      <point x="570" y="-276" type="curve" smooth="yes"/>
      <point x="570" y="-388"/>
      <point x="641" y="-450"/>
    </contour>
    <component base="a.ss01"/>
  </outline>
</glyph>
<glyph name="brevecomb.case" format="2">
  <anchor x="555" y="1398" name="_top"/>
  <anchor x="645" y="1812" name="top"/>
  <outline>
    <contour>
      <point x="625" y="1582" type="curve" smooth="yes"/>
      <point x="817" y="1582"/>
      <point x="977" y="1714"/>
      <point x="989" y="1904" type="curve"/>
      <point x="887" y="1904" type="line"/>
      <point x="877" y="1766"/>
      <point x="777" y="1676"/>
      <point x="635" y="1676" type="curve" smooth="yes"/>
      <point x="489" y="1676"/>
      <point x="401" y="1758"/>
      <point x="417" y="1904" type="curve"/>
      <point x="313" y="1904" type="line"/>
      <point x="297" y="1708"/>
      <point x="421" y="1582"/>
    </contour>
  </outline>
</glyph>
<glyph name="breveinvertedcomb.case" format="2">
  <anchor x="537" y="1398" name="_top"/>
  <outline>
    <contour>
      <point x="251" y="1592" type="curve"/>
      <point x="351" y="1592" type="line"/>
      <point x="361" y="1730"/>
      <point x="467" y="1820"/>
      <point x="605" y="1820" type="curve" smooth="yes"/>
      <point x="763" y="1820"/>
      <point x="843" y="1724"/>
      <point x="821" y="1592" type="curve"/>
      <point x="925" y="1592" type="line"/>
      <point x="951" y="1770"/>
      <point x="821" y="1914"/>
      <point x="615" y="1914" type="curve" smooth="yes"/>
      <point x="417" y="1914"/>
      <point x="261" y="1780"/>
    </contour>
  </outline>
</glyph>
<glyph name="breveinvertedcomb.narrow" format="2">
  <anchor x="392" y="960" name="_top"/>
  <outline>
    <contour>
      <point x="160" y="1170" type="curve"/>
      <point x="258" y="1170" type="line"/>
      <point x="272" y="1320"/>
      <point x="362" y="1418"/>
      <point x="470" y="1418" type="curve" smooth="yes"/>
      <point x="596" y="1418"/>
      <point x="650" y="1314"/>
      <point x="626" y="1170" type="curve"/>
      <point x="728" y="1170" type="line"/>
      <point x="758" y="1360"/>
      <point x="656" y="1514"/>
      <point x="484" y="1514" type="curve" smooth="yes"/>
      <point x="318" y="1514"/>
      <point x="178" y="1372"/>
    </contour>
  </outline>
</glyph>
<glyph name="circumflexcomb.narrow" format="2">
  <anchor x="393" y="960" name="_top"/>
  <anchor x="495" y="1444" name="top"/>
  <anchor x="721" y="1224" name="top_right"/>
  <outline>
    <contour>
      <point x="157" y="1170" type="line"/>
      <point x="283" y="1170" type="line"/>
      <point x="501" y="1426" type="line"/>
      <point x="597" y="1170" type="line"/>
      <point x="707" y="1170" type="line"/>
      <point x="573" y="1504" type="line"/>
      <point x="453" y="1504" type="line"/>
    </contour>
  </outline>
</glyph>
<glyph name="four.dnom" format="2">
  <advance width="846"/>
  <outline>
    <contour>
      <point x="426" y="0" type="line"/>
      <point x="522" y="0" type="line"/>
      <point x="564" y="196" type="line"/>
      <point x="718" y="196" type="line"/>
      <point x="738" y="288" type="line"/>
      <point x="582" y="288" type="line"/>
      <point x="628" y="504" type="line"/>
      <point x="532" y="504" type="line"/>
      <point x="486" y="288" type="line"/>
      <point x="124" y="288" type="line"/>
      <point x="614" y="910" type="line"/>
      <point x="498" y="910" type="line"/>
      <point x="4" y="280" type="line"/>
      <point x="-12" y="196" type="line"/>
      <point x="468" y="196" type="line"/>
    </contour>
  </outline>
</glyph>
<glyph name="four.numr" format="2">
  <advance width="846"/>
  <outline>
    <contour>
      <point x="530" y="490" type="line"/>
      <point x="626" y="490" type="line"/>
      <point x="668" y="686" type="line"/>
      <point x="822" y="686" type="line"/>
      <point x="842" y="778" type="line"/>
      <point x="686" y="778" type="line"/>
      <point x="732" y="994" type="line"/>
      <point x="636" y="994" type="line"/>
      <point x="590" y="778" type="line"/>
      <point x="228" y="778" type="line"/>
      <point x="718" y="1400" type="line"/>
      <point x="602" y="1400" type="line"/>
      <point x="108" y="770" type="line"/>
      <point x="92" y="686" type="line"/>
      <point x="572" y="686" type="line"/>
    </contour>
  </outline>
</glyph>
<glyph name="gravecomb.case" format="2">
  <anchor x="439" y="1398" name="_top"/>
  <outline>
    <contour>
      <point x="455" y="1592" type="line"/>
      <point x="565" y="1592" type="line"/>
      <point x="435" y="1904" type="line"/>
      <point x="313" y="1904" type="line"/>
    </contour>
  </outline>
</glyph>
<glyph name="gravecomb.narrow" format="2">
  <anchor x="320" y="960" name="_top"/>
  <outline>
    <contour>
      <point x="336" y="1170" type="line"/>
      <point x="442" y="1170" type="line"/>
      <point x="348" y="1504" type="line"/>
      <point x="228" y="1504" type="line"/>
    </contour>
  </outline>
</glyph>
<glyph name="hookabovecomb.narrow" format="2">
  <anchor x="305" y="960" name="_top"/>
  <outline>
    <contour>
      <point x="305" y="1170" type="curve"/>
      <point x="391" y="1170" type="line"/>
      <point x="377" y="1252"/>
      <point x="391" y="1274"/>
      <point x="475" y="1310" type="curve" smooth="yes"/>
      <point x="561" y="1346"/>
      <point x="627" y="1386"/>
      <point x="627" y="1484" type="curve" smooth="yes"/>
      <point x="627" y="1582"/>
      <point x="525" y="1634"/>
      <point x="405" y="1634" type="curve" smooth="yes"/>
      <point x="353" y="1634"/>
      <point x="297" y="1624"/>
      <point x="251" y="1606" type="curve"/>
      <point x="231" y="1520" type="line"/>
      <point x="279" y="1540"/>
      <point x="341" y="1550"/>
      <point x="397" y="1550" type="curve" smooth="yes"/>
      <point x="473" y="1550"/>
      <point x="529" y="1514"/>
      <point x="529" y="1460" type="curve" smooth="yes"/>
      <point x="529" y="1402"/>
      <point x="487" y="1384"/>
      <point x="415" y="1360" type="curve" smooth="yes"/>
      <point x="313" y="1326"/>
      <point x="277" y="1270"/>
    </contour>
  </outline>
</glyph>
<glyph name="horncomb.alt" format="2">
  <anchor x="156" y="960" name="_horn"/>
  <outline>
    <contour>
      <point x="174" y="802" type="curve" smooth="yes"/>
      <point x="308" y="802"/>
      <point x="382" y="904"/>
      <point x="382" y="1012" type="curve" smooth="yes"/>
      <point x="382" y="1055"/>
      <point x="370" y="1102"/>
      <point x="344" y="1148" type="curve"/>
      <point x="238" y="1148" type="line"/>
      <point x="263" y="1092"/>
      <point x="276" y="1044"/>
      <point x="274" y="1002" type="curve" smooth="yes"/>
      <point x="274" y="940"/>
      <point x="238" y="886"/>
      <point x="168" y="886" type="curve" smooth="yes"/>
      <point x="150" y="886"/>
      <point x="126" y="890"/>
      <point x="100" y="898" type="curve"/>
      <point x="82" y="820" type="line"/>
      <point x="118" y="810"/>
      <point x="144" y="802"/>
    </contour>
  </outline>
</glyph>
<glyph name="iu-cy.loclBGR" format="2">
  <advance width="1650"/>
  <anchor x="124" y="0" name="bottom"/>
  <anchor x="488" y="1440" name="caron"/>
  <anchor x="432" y="1440" name="top"/>
  <outline>
    <contour>
      <point x="1006" y="-30" type="curve" smooth="yes"/>
      <point x="1310" y="-30"/>
      <point x="1570" y="232"/>
      <point x="1570" y="538" type="curve" smooth="yes"/>
      <point x="1570" y="786"/>
      <point x="1388" y="990"/>
      <point x="1110" y="990" type="curve" smooth="yes"/>
      <point x="808" y="990"/>
      <point x="546" y="728"/>
      <point x="546" y="424" type="curve" smooth="yes"/>
      <point x="546" y="172"/>
      <point x="728" y="-30"/>
    </contour>
    <contour>
      <point x="1020" y="78" type="curve" smooth="yes"/>
      <point x="804" y="78"/>
      <point x="666" y="210"/>
      <point x="666" y="420" type="curve" smooth="yes"/>
      <point x="666" y="672"/>
      <point x="838" y="882"/>
      <point x="1096" y="882" type="curve" smooth="yes"/>
      <point x="1310" y="882"/>
      <point x="1450" y="750"/>
      <point x="1450" y="540" type="curve" smooth="yes"/>
      <point x="1450" y="288"/>
      <point x="1278" y="78"/>
    </contour>
    <contour>
      <point x="274" y="564" type="line"/>
      <point x="252" y="460" type="line"/>
      <point x="620" y="460" type="line"/>
      <point x="642" y="564" type="line"/>
    </contour>
    <component base="l"/>
  </outline>
</glyph>
<glyph name="jdotless.calt" format="2">
  <advance width="452"/>
  <anchor x="329" y="960" name="top"/>
  <outline>
    <contour>
      <point x="-93" y="-450" type="curve" smooth="yes"/>
      <point x="24" y="-450"/>
      <point x="100" y="-381"/>
      <point x="131" y="-234" type="curve" smooth="yes"/>
      <point x="393" y="1000" type="line"/>
      <point x="251" y="858" type="line"/>
      <point x="23" y="-214" type="line" smooth="yes"/>
      <point x="5" y="-298"/>
      <point x="-26" y="-342"/>
      <point x="-96" y="-342" type="curve" smooth="yes"/>
      <point x="-122" y="-342"/>
      <point x="-147" y="-336"/>
      <point x="-170" y="-325" type="curve"/>
      <point x="-193" y="-437" type="line"/>
      <point x="-167" y="-445"/>
      <point x="-137" y="-450"/>
    </contour>
  </outline>
</glyph>
<glyph name="macroncomb.narrow" format="2">
  <anchor x="365" y="960" name="_top"/>
  <outline>
    <contour>
      <point x="169" y="1230" type="line"/>
      <point x="671" y="1230" type="line"/>
      <point x="695" y="1334" type="line"/>
      <point x="195" y="1334" type="line"/>
    </contour>
  </outline>
</glyph>
<glyph name="one.dnom" format="2">
  <advance width="616"/>
  <outline>
    <contour>
      <point x="236" y="0" type="line"/>
      <point x="336" y="0" type="line"/>
      <point x="532" y="930" type="line"/>
      <point x="524" y="930" type="line"/>
      <point x="146" y="802" type="line"/>
      <point x="126" y="710" type="line"/>
      <point x="406" y="800" type="line"/>
    </contour>
  </outline>
</glyph>
<glyph name="periodcentered.loclCAT.case" format="2">
  <advance width="576"/>
  <outline>
    <contour>
      <point x="-226" y="630" type="curve" smooth="yes"/>
      <point x="-160" y="630"/>
      <point x="-102" y="678"/>
      <point x="-102" y="746" type="curve" smooth="yes"/>
      <point x="-102" y="798"/>
      <point x="-144" y="838"/>
      <point x="-202" y="838" type="curve" smooth="yes"/>
      <point x="-268" y="838"/>
      <point x="-326" y="790"/>
      <point x="-326" y="722" type="curve" smooth="yes"/>
      <point x="-326" y="670"/>
      <point x="-284" y="630"/>
    </contour>
  </outline>
</glyph>
<glyph name="ringcomb.case" format="2">
  <anchor x="485" y="1400" name="_top"/>
  <anchor x="589" y="1888" name="top"/>
  <outline>
    <contour>
      <point x="527" y="1462" type="curve" smooth="yes"/>
      <point x="687" y="1462"/>
      <point x="835" y="1588"/>
      <point x="835" y="1752" type="curve" smooth="yes"/>
      <point x="835" y="1884"/>
      <point x="725" y="1990"/>
      <point x="583" y="1990" type="curve" smooth="yes"/>
      <point x="427" y="1990"/>
      <point x="275" y="1864"/>
      <point x="275" y="1700" type="curve" smooth="yes"/>
      <point x="275" y="1566"/>
      <point x="387" y="1462"/>
    </contour>
    <contour>
      <point x="539" y="1554" type="curve" smooth="yes"/>
      <point x="441" y="1554"/>
      <point x="373" y="1618"/>
      <point x="373" y="1708" type="curve" smooth="yes"/>
      <point x="373" y="1818"/>
      <point x="463" y="1898"/>
      <point x="571" y="1898" type="curve" smooth="yes"/>
      <point x="669" y="1898"/>
      <point x="737" y="1834"/>
      <point x="737" y="1746" type="curve" smooth="yes"/>
      <point x="737" y="1636"/>
      <point x="647" y="1554"/>
    </contour>
  </outline>
</glyph>
<glyph name="three.dnom" format="2">
  <advance width="816"/>
  <outline>
    <contour>
      <point x="302" y="-20" type="curve" smooth="yes"/>
      <point x="498" y="-20"/>
      <point x="660" y="108"/>
      <point x="660" y="294" type="curve" smooth="yes"/>
      <point x="660" y="444"/>
      <point x="526" y="524"/>
      <point x="362" y="532" type="curve"/>
      <point x="736" y="826" type="line"/>
      <point x="752" y="910" type="line"/>
      <point x="186" y="910" type="line"/>
      <point x="146" y="818" type="line"/>
      <point x="592" y="818" type="line"/>
      <point x="210" y="516" type="line"/>
      <point x="228" y="452" type="line"/>
      <point x="252" y="456"/>
      <point x="280" y="458"/>
      <point x="308" y="458" type="curve" smooth="yes"/>
      <point x="460" y="458"/>
      <point x="554" y="394"/>
      <point x="554" y="290" type="curve" smooth="yes"/>
      <point x="554" y="160"/>
      <point x="450" y="76"/>
      <point x="306" y="76" type="curve" smooth="yes"/>
      <point x="204" y="76"/>
      <point x="106" y="110"/>
      <point x="40" y="166" type="curve"/>
      <point x="18" y="64" type="line"/>
      <point x="84" y="15"/>
      <point x="194" y="-20"/>
    </contour>
  </outline>
</glyph>
<glyph name="tildecomb.case" format="2">
  <anchor x="536" y="1398" name="_top"/>
  <anchor x="612" y="1758" name="top"/>
  <outline>
    <contour>
      <point x="263" y="1662" type="line"/>
      <point x="313" y="1714"/>
      <point x="372" y="1741"/>
      <point x="449" y="1741" type="curve" smooth="yes"/>
      <point x="543" y="1741"/>
      <point x="653" y="1662"/>
      <point x="763" y="1662" type="curve" smooth="yes"/>
      <point x="830" y="1662"/>
      <point x="888" y="1686"/>
      <point x="936" y="1726" type="curve"/>
      <point x="958" y="1838" type="line"/>
      <point x="905" y="1783"/>
      <point x="844" y="1759"/>
      <point x="772" y="1759" type="curve" smooth="yes"/>
      <point x="678" y="1759"/>
      <point x="567" y="1838"/>
      <point x="458" y="1838" type="curve" smooth="yes"/>
      <point x="393" y="1838"/>
      <point x="334" y="1815"/>
      <point x="285" y="1774" type="curve"/>
    </contour>
  </outline>
</glyph>
<glyph name="tildecomb.narrow" format="2">
  <anchor x="390" y="960" name="_top"/>
  <anchor x="472" y="1344" name="top"/>
  <outline>
    <contour>
      <point x="173" y="1246" type="line"/>
      <point x="218" y="1302"/>
      <point x="271" y="1330"/>
      <point x="332" y="1330" type="curve" smooth="yes"/>
      <point x="411" y="1330"/>
      <point x="500" y="1246"/>
      <point x="592" y="1246" type="curve" smooth="yes"/>
      <point x="647" y="1246"/>
      <point x="698" y="1270"/>
      <point x="742" y="1314" type="curve"/>
      <point x="768" y="1430" type="line"/>
      <point x="723" y="1374"/>
      <point x="671" y="1346"/>
      <point x="609" y="1346" type="curve" smooth="yes"/>
      <point x="530" y="1346"/>
      <point x="441" y="1430"/>
      <point x="349" y="1430" type="curve" smooth="yes"/>
      <point x="294" y="1430"/>
      <point x="243" y="1406"/>
      <point x="199" y="1362" type="curve"/>
    </contour>
  </outline>
</glyph>
<glyph name="ve-cy.loclBGR" format="2">
  <advance width="1143"/>
  <outline>
    <contour>
      <point x="504" y="-28" type="curve" smooth="yes"/>
      <point x="794" y="-28"/>
      <point x="1024" y="172"/>
      <point x="1024" y="440" type="curve" smooth="yes"/>
      <point x="1024" y="592"/>
      <point x="938" y="708"/>
      <point x="806" y="752" type="curve"/>
      <point x="982" y="802"/>
      <point x="1138" y="972"/>
      <point x="1138" y="1166" type="curve" smooth="yes"/>
      <point x="1138" y="1360"/>
      <point x="976" y="1472"/>
      <point x="768" y="1472" type="curve" smooth="yes"/>
      <point x="508" y="1472"/>
      <point x="316" y="1294"/>
      <point x="250" y="990" type="curve" smooth="yes"/>
      <point x="130" y="432" type="line" smooth="yes"/>
      <point x="66" y="136"/>
      <point x="240" y="-28"/>
    </contour>
    <contour>
      <point x="514" y="80" type="curve" smooth="yes"/>
      <point x="302" y="80"/>
      <point x="194" y="216"/>
      <point x="240" y="428" type="curve" smooth="yes"/>
      <point x="362" y="990" type="line" smooth="yes"/>
      <point x="416" y="1240"/>
      <point x="550" y="1364"/>
      <point x="752" y="1364" type="curve" smooth="yes"/>
      <point x="906" y="1364"/>
      <point x="1012" y="1288"/>
      <point x="1012" y="1138" type="curve" smooth="yes"/>
      <point x="1012" y="938"/>
      <point x="810" y="800"/>
      <point x="598" y="800" type="curve" smooth="yes"/>
      <point x="294" y="800" type="line"/>
      <point x="272" y="694" type="line"/>
      <point x="596" y="694" type="line" smooth="yes"/>
      <point x="790" y="694"/>
      <point x="898" y="586"/>
      <point x="898" y="426" type="curve" smooth="yes"/>
      <point x="898" y="220"/>
      <point x="748" y="80"/>
    </contour>
  </outline>
</glyph>
